<svg xmlns="http://www.w3.org/2000/svg" xmlns:xlink="http://www.w3.org/1999/xlink" xmlns:lucid="lucid" width="400" height="139"><g transform="translate(-60 -40)" lucid:page-tab-id="jxwGWH5jSu7z"><path d="M0 0h534.1v284.72H0z" fill="#fff"/><path d="M80 64c0-2.2 1.8-4 4-4h352c2.2 0 4 1.8 4 4v91c0 2.2-1.8 4-4 4H84c-2.2 0-4-1.8-4-4z" stroke="#7ab648" stroke-width="2" fill="#c7e8ac"/><path d="M80 97.17h360" stroke="#7ab648" stroke-width="2" fill="none"/><use xlink:href="#a" transform="matrix(1,0,0,1,88,68) translate(157.51 16.616)"/><use xlink:href="#b" transform="matrix(1,0,0,1,92,105.168) translate(0 18.032)"/><use xlink:href="#c" transform="matrix(1,0,0,1,92,105.168) translate(0 39.2)"/><use xlink:href="#d" transform="matrix(1,0,0,1,92,105.168) translate(93.05999999999999 39.2)"/><use xlink:href="#e" transform="matrix(1,0,0,1,92,105.168) translate(122.29199999999999 39.2)"/><use xlink:href="#f" transform="matrix(1,0,0,1,92,105.168) translate(161.26199999999997 39.2)"/><use xlink:href="#g" transform="matrix(1,0,0,1,92,105.168) translate(184.71599999999998 39.2)"/><defs><path fill="#444" d="M68-500h130V0H68v-500zm62-73c-46 0-81-26-81-68s35-70 81-70c45 0 85 29 85 70 0 42-40 68-85 68" id="h"/><path fill="#444" d="M557-399c-51 0-73 31-86 71V0H341v-272c-3-78 0-124-67-127-48-2-73 31-87 66V0H57v-500h101l15 66h4c32-41 75-82 150-80 72 1 105 28 126 85 29-48 73-83 146-85 130-3 157 84 156 214V0H625v-281c-3-70-2-118-68-118" id="i"/><path fill="#444" d="M283-512c75-1 146 12 197 30V0c1 145-82 211-224 212-78 1-132-10-176-31l27-103c36 13 74 27 129 27 98 0 121-48 117-144h-4C326-8 284 8 225 8 81 8 33-84 33-240c-1-172 82-272 250-272zM167-245c0 83 22 149 93 149 55 0 75-25 90-68v-225c-21-9-46-13-77-13-80 0-107 63-106 157" id="j"/><g id="a"><use transform="matrix(0.018,0,0,0.018,0,0)" xlink:href="#h"/><use transform="matrix(0.018,0,0,0.018,4.842,0)" xlink:href="#i"/><use transform="matrix(0.018,0,0,0.018,19.331999999999997,0)" xlink:href="#j"/></g><path fill="#444" d="M63-93c59 36 240 71 234-43-5-91-121-82-179-124-34-24-62-54-62-113 0-97 59-138 155-139 66-1 112 13 154 32l-19 66c-52-26-221-63-210 39 9 83 124 74 178 118 33 27 64 57 63 118-3 103-68 149-174 151C134 13 81-3 39-25" id="k"/><path fill="#444" d="M152-439c26-60 97-88 178-61l-17 77c-74-29-156 5-156 73V0H77v-500h56l15 61h4" id="l"/><path fill="#444" d="M281-58c46 1 86-17 111-36l26 61c-37 28-94 45-157 45C104 12 53-93 49-250c-5-188 108-294 299-254 22 5 42 12 60 21l-23 69c-29-16-66-28-111-28-95 0-142 64-142 192 0 110 39 189 149 192" id="m"/><path fill="#444" d="M40-457h424v72H40v-72zm0 166h424v72H40v-72" id="n"/><path fill="#444" d="M207-700h78l-31 193h-47v-193zm-117 0h78l-31 193H90v-193" id="o"/><path fill="#444" d="M422-354c0 120-19 253 8 356h-59l-21-70h-5C315-22 265 8 189 8 98 8 39-43 39-134c0-147 152-157 302-151 10-93 1-159-99-153-57 4-110 14-148 35l-25-60c48-30 118-45 194-45 108-1 159 51 159 154zM122-142c-2 47 40 81 89 80 67-1 109-32 130-79v-83c-95-3-214-10-219 82" id="p"/><path fill="#444" d="M200 12C109 10 89-39 89-138v-292H11v-70h78v-99l80-23v122h136v70H169v277c1 59 6 93 57 95 38 1 55-9 84-20l18 61c-35 17-77 30-128 29" id="q"/><path fill="#444" d="M106 12c-34 0-57-24-57-58 0-35 22-58 57-58s60 22 59 58c0 34-24 58-59 58" id="r"/><path fill="#444" d="M262 12c-51 0-69-5-105-20v208H77v-700h55l15 60h4c28-43 75-72 143-72 149 0 198 89 198 252 0 161-73 272-230 272zm147-273c-1-103-28-181-130-181-75 0-107 41-122 107v248c27 20 53 30 102 29 104-2 152-86 150-203" id="s"/><path fill="#444" d="M313-512c130 0 165 79 165 210V0h-80v-285c-2-94-16-155-105-157-72-1-118 46-136 100V0H77v-500h56l15 61h4c32-42 86-73 161-73" id="t"/><path fill="#444" d="M290-509c71-1 121 13 170 30V23c0 132-72 189-204 189-71 0-115-8-159-27l21-68c37 13 69 25 124 25 122 0 148-66 139-191h-4c-28 39-65 61-132 60C95 9 50-86 49-248c-1-166 78-261 241-261zM132-249c2 104 25 190 127 190 75 0 106-39 121-105v-256c-27-13-61-19-102-19-103 0-147 74-146 190" id="u"/><g id="b"><use transform="matrix(0.018,0,0,0.018,0,0)" xlink:href="#k"/><use transform="matrix(0.018,0,0,0.018,7.577999999999999,0)" xlink:href="#l"/><use transform="matrix(0.018,0,0,0.018,13.697999999999999,0)" xlink:href="#m"/><use transform="matrix(0.018,0,0,0.018,21.815999999999995,0)" xlink:href="#n"/><use transform="matrix(0.018,0,0,0.018,30.905999999999995,0)" xlink:href="#o"/><use transform="matrix(0.018,0,0,0.018,35.117999999999995,0)" xlink:href="#m"/><use transform="matrix(0.018,0,0,0.018,43.23599999999999,0)" xlink:href="#p"/><use transform="matrix(0.018,0,0,0.018,52.16399999999999,0)" xlink:href="#q"/><use transform="matrix(0.018,0,0,0.018,58.55399999999998,0)" xlink:href="#r"/><use transform="matrix(0.018,0,0,0.018,62.40599999999998,0)" xlink:href="#s"/><use transform="matrix(0.018,0,0,0.018,72.14399999999998,0)" xlink:href="#t"/><use transform="matrix(0.018,0,0,0.018,81.98999999999998,0)" xlink:href="#u"/><use transform="matrix(0.018,0,0,0.018,91.65599999999998,0)" xlink:href="#o"/></g><path fill="#444" d="M189 12C123 10 86-25 86-100v-600h80v577c-10 72 59 74 108 54l9 63c-18 10-66 18-94 18" id="v"/><path fill="#444" d="M522-493c0 190-158 248-354 227V0H85v-693c48-12 110-15 169-15 155 0 268 57 268 215zm-88 0c0-134-136-157-266-137v290c139 17 266-9 266-153" id="w"/><path fill="#444" d="M231-250c-25 0-54 0-74 7v173c25 4 48 6 71 6 77 1 113-26 113-94 0-62-38-94-110-92zm193 83C419-35 351 5 210 6c-43 0-87-2-133-6v-500h80v191c135-22 272 2 267 142zm79-333h80V0h-80v-500" id="x"/><path fill="#444" d="M240-221L93 0H1l158-229 34-30-51-38L12-500h85l138 216h52v-216h78v226l47-14 139-212h84L499-297l-39 32 51 40L659 0h-95L417-225h-52V0h-78v-235" id="y"/><path fill="#444" d="M389 0c1-119-3-244 3-358h-3C308-231 211-120 123 0H77v-500h80c-1 121 3 248-3 364h4c81-128 177-242 264-364h47V0h-80" id="z"/><path fill="#444" d="M389 0c1-119-3-244 3-358h-3C308-231 211-120 123 0H77v-500h80c-1 121 3 248-3 364h4c81-128 177-242 264-364h47V0h-80zm45-682c-4 132-227 159-290 56-10-15-17-32-20-52l68-24c10 53 38 82 91 82 51 0 82-31 91-81" id="A"/><g id="c"><use transform="matrix(0.018,0,0,0.018,0,0)" xlink:href="#p"/><use transform="matrix(0.018,0,0,0.018,8.927999999999999,0)" xlink:href="#v"/><use transform="matrix(0.018,0,0,0.018,14.183999999999997,0)" xlink:href="#q"/><use transform="matrix(0.018,0,0,0.018,20.285999999999998,0)" xlink:href="#n"/><use transform="matrix(0.018,0,0,0.018,29.375999999999998,0)" xlink:href="#o"/><use transform="matrix(0.018,0,0,0.018,35.406,0)" xlink:href="#w"/><use transform="matrix(0.018,0,0,0.018,44.855999999999995,0)" xlink:href="#x"/><use transform="matrix(0.018,0,0,0.018,56.73599999999999,0)" xlink:href="#y"/><use transform="matrix(0.018,0,0,0.018,68.59799999999998,0)" xlink:href="#z"/><use transform="matrix(0.018,0,0,0.018,78.42599999999999,0)" xlink:href="#A"/></g><path fill="#444" d="M203-225h-46V0H77v-500h80v226l43-14 160-212h87L292-299l-42 33 52 40L469 0h-99" id="B"/><path fill="#444" d="M268 12C112 12 51-93 49-250c-1-158 69-262 219-262 156 0 217 105 219 262 1 158-69 262-219 262zm136-262c0-105-32-190-136-192-91-2-136 63-136 192 0 105 33 189 136 192 91 2 136-63 136-192" id="C"/><path fill="#444" d="M395-430H239V0h-80v-430H3v-70h392v70" id="D"/><g id="d"><use transform="matrix(0.018,0,0,0.018,0,0)" xlink:href="#B"/><use transform="matrix(0.018,0,0,0.018,8.478,0)" xlink:href="#C"/><use transform="matrix(0.018,0,0,0.018,17.838,0)" xlink:href="#D"/></g><path fill="#444" d="M281-58c46 1 86-17 111-36l26 61c-37 28-94 45-157 45C104 12 53-93 49-250c-5-188 108-294 299-254 22 5 42 12 60 21l-23 69c-29-16-66-28-111-28-95 0-142 64-142 192 0 110 39 189 149 192" id="E"/><path fill="#444" d="M378-430H157V0H77v-500h381V0h-80v-430" id="F"/><g id="e"><use transform="matrix(0.018,0,0,0.018,0,0)" xlink:href="#E"/><use transform="matrix(0.018,0,0,0.018,8.117999999999999,0)" xlink:href="#F"/><use transform="matrix(0.018,0,0,0.018,17.747999999999998,0)" xlink:href="#z"/><use transform="matrix(0.018,0,0,0.018,27.575999999999997,0)" xlink:href="#D"/></g><path fill="#444" d="M383-221H157V0H77v-500h80v209h226v-209h80V0h-80v-221" id="G"/><path fill="#444" d="M422-354c0 120-19 253 8 356h-59l-21-70h-5C315-22 265 8 189 8 98 8 39-43 39-134c0-147 152-157 302-151 10-93 1-159-99-153-57 4-110 14-148 35l-25-60c48-30 118-45 194-45 108-1 159 51 159 154zM122-142c-2 47 40 81 89 80 67-1 109-32 130-79v-83c-95-3-214-10-219 82" id="H"/><g id="f"><use transform="matrix(0.018,0,0,0.018,0,0)" xlink:href="#G"/><use transform="matrix(0.018,0,0,0.018,9.719999999999999,0)" xlink:href="#H"/></g><path fill="#444" d="M346-430H201c-12 154-13 330-95 414C82 10 30 8-5-5L7-72c59 14 77-23 90-78 23-100 27-207 31-350h298V0h-80v-430" id="I"/><path fill="#444" d="M226 7C171 7 126 3 77-1v-498c58-3 101-9 169-8 114 1 185 24 185 123 0 58-35 103-88 118v4c71 13 107 45 107 121C450-22 357 6 226 7zm144-154c-4-62-47-82-125-81h-88v161c91 6 219 17 213-80zM243-437c-37 0-55 1-86 3v145c93 3 194 6 194-77 0-63-37-69-108-71" id="J"/><path fill="#444" d="M104-500c49 140 107 271 148 420h5c31-148 79-280 119-420h81C396-319 339-134 276 44c-20 55-46 106-82 140-28 26-82 25-117 11l14-69c34 12 54 2 79-24 17-20 32-54 43-102L12-500h92" id="K"/><path fill="#444" d="M262 12c-51 0-69-5-105-20v208H77v-700h55l15 60h4c28-43 75-72 143-72 149 0 198 89 198 252 0 161-73 272-230 272zm147-273c-1-103-28-181-130-181-75 0-107 41-122 107v248c27 20 53 30 102 29 104-2 152-86 150-203" id="L"/><path fill="#444" d="M293-58c43 0 98-19 119-40l30 58C404-9 338 12 270 12 112 10 51-92 49-250c-1-159 70-258 220-262 155-4 211 110 184 270H132c0 116 45 184 161 184zm88-247c1-92-30-137-111-137-89 0-129 46-137 137h248" id="M"/><g id="g"><use transform="matrix(0.018,0,0,0.018,0,0)" xlink:href="#B"/><use transform="matrix(0.018,0,0,0.018,8.604,0)" xlink:href="#I"/><use transform="matrix(0.018,0,0,0.018,17.657999999999998,0)" xlink:href="#H"/><use transform="matrix(0.018,0,0,0.018,26.586,0)" xlink:href="#J"/><use transform="matrix(0.018,0,0,0.018,35.568,0)" xlink:href="#z"/><use transform="matrix(0.018,0,0,0.018,45.39600000000001,0)" xlink:href="#H"/><use transform="matrix(0.018,0,0,0.018,54.324,0)" xlink:href="#D"/><use transform="matrix(0.018,0,0,0.018,61.47,0)" xlink:href="#K"/><use transform="matrix(0.018,0,0,0.018,69.858,0)" xlink:href="#L"/><use transform="matrix(0.018,0,0,0.018,79.596,0)" xlink:href="#M"/><use transform="matrix(0.018,0,0,0.018,88.52400000000002,0)" xlink:href="#o"/></g></defs></g></svg>