<svg xmlns="http://www.w3.org/2000/svg" xmlns:xlink="http://www.w3.org/1999/xlink" xmlns:lucid="lucid" width="520" height="396.1"><g transform="translate(-60.00000000000003 -43.83225377879981)" lucid:page-tab-id="m2~CHz4CZn6D"><path d="M0 0h647.77v514.03H0z" fill="#fff"/><path d="M80 162.94c0-2.2 1.8-4 4-4h272c2.2 0 4 1.8 4 4v112c0 2.2-1.8 4-4 4H84c-2.2 0-4-1.8-4-4z" stroke="#7ab648" stroke-width="2" fill="#c7e8ac"/><path d="M80 196.1h280" stroke="#7ab648" stroke-width="2" fill="none"/><use xlink:href="#a" transform="matrix(1,0,0,1,88.00000000000003,166.93588908298466) translate(117.51 16.616)"/><use xlink:href="#b" transform="matrix(1,0,0,1,92.00000000000003,204.10388908298467) translate(0 17.947999999999997)"/><use xlink:href="#c" transform="matrix(1,0,0,1,92.00000000000003,204.10388908298467) translate(0 39.116)"/><use xlink:href="#d" transform="matrix(1,0,0,1,92.00000000000003,204.10388908298467) translate(101.41199999999999 39.116)"/><use xlink:href="#e" transform="matrix(1,0,0,1,92.00000000000003,204.10388908298467) translate(130.644 39.116)"/><use xlink:href="#f" transform="matrix(1,0,0,1,92.00000000000003,204.10388908298467) translate(190.35 39.116)"/><use xlink:href="#g" transform="matrix(1,0,0,1,92.00000000000003,204.10388908298467) translate(0 60.28399999999999)"/><path d="M400 162.94c0-2.2 1.8-4 4-4h152c2.2 0 4 1.8 4 4v71c0 2.2-1.8 4-4 4H404c-2.2 0-4-1.8-4-4z" stroke="#3aa6dd" stroke-width="2" fill="#c1e4f7"/><path d="M400 196.1h160" stroke="#3aa6dd" stroke-width="2" fill="none"/><use xlink:href="#h" transform="matrix(1,0,0,1,408,166.93588908298466) translate(53.973 16.616)"/><use xlink:href="#i" transform="matrix(1,0,0,1,412,204.10388908298467) translate(0 19.116)"/><path d="M400 322.94c0-2.2 1.8-4 4-4h152c2.2 0 4 1.8 4 4v93c0 2.2-1.8 4-4 4H404c-2.2 0-4-1.8-4-4z" stroke="#ef8d22" stroke-width="2" fill="#ffdba9"/><path d="M400 356.1h160" stroke="#ef8d22" stroke-width="2" fill="none"/><use xlink:href="#j" transform="matrix(1,0,0,1,408,326.93588908298466) translate(56.655 16.616)"/><use xlink:href="#k" transform="matrix(1,0,0,1,412,364.10388908298467) translate(0 19.032)"/><use xlink:href="#l" transform="matrix(1,0,0,1,412,364.10388908298467) translate(57.653999999999996 19.032)"/><use xlink:href="#m" transform="matrix(1,0,0,1,412,364.10388908298467) translate(86.886 19.032)"/><use xlink:href="#n" transform="matrix(1,0,0,1,412,364.10388908298467) translate(0 40.2)"/><use xlink:href="#o" transform="matrix(1,0,0,1,412,364.10388908298467) translate(23.453999999999997 40.2)"/><path d="M220.02 156.93l.03-1.57.16-2.5.27-2.42.35-2.37.44-2.32.53-2.28.62-2.24.72-2.2.8-2.2.92-2.17 1.02-2.15 1.12-2.14 1.24-2.15 1.37-2.14 1.5-2.16 1.65-2.17 1.8-2.18 2-2.2 2.16-2.2 2.4-2.26 2.63-2.27 2.9-2.3 3.18-2.3 3.52-2.34 3.9-2.36 4.28-2.36 4.75-2.36 5.25-2.33 5.8-2.3 6.4-2.23 7-2.1 7.65-1.97 8.28-1.76 8.9-1.5 9.42-1.2 9.84-.82 10.1-.42h10.2l10.1.42 9.84.83 9.42 1.2 8.9 1.5 8.28 1.75 7.65 1.96 7 2.12 6.38 2.22 5.8 2.3 5.24 2.33 4.75 2.35 4.3 2.36 3.88 2.35 3.5 2.33 3.2 2.3 2.9 2.3 2.62 2.27 2.4 2.24 2.16 2.22 1.98 2.2 1.8 2.18 1.66 2.17 1.5 2.16 1.36 2.15 1.24 2.16 1.13 2.15 1 2.17.92 2.17.8 2.2.24.7" stroke="#444" stroke-width="2" fill="none"/><path d="M221.02 156.93l-.02 1h-2l.02-1.04z" fill="#444"/><path d="M479.45 154.74l-6.82-13.36 9.15-1.46z" stroke="#444" stroke-width="2" fill="#444"/><g><use xlink:href="#p" transform="matrix(1,0,0,1,292.20339598954456,54.83225377879981) translate(0 16.2)"/></g><path d="M480 239.94v59.5" stroke="#444" stroke-width="2" fill="none"/><path d="M481 239.96h-2v-1.02h2z" fill="#444"/><path d="M480 314.7l-4.64-14.27h9.28z" stroke="#444" stroke-width="2" fill="#444"/><defs><path fill="#444" d="M68-500h130V0H68v-500zm62-73c-46 0-81-26-81-68s35-70 81-70c45 0 85 29 85 70 0 42-40 68-85 68" id="q"/><path fill="#444" d="M557-399c-51 0-73 31-86 71V0H341v-272c-3-78 0-124-67-127-48-2-73 31-87 66V0H57v-500h101l15 66h4c32-41 75-82 150-80 72 1 105 28 126 85 29-48 73-83 146-85 130-3 157 84 156 214V0H625v-281c-3-70-2-118-68-118" id="r"/><path fill="#444" d="M283-512c75-1 146 12 197 30V0c1 145-82 211-224 212-78 1-132-10-176-31l27-103c36 13 74 27 129 27 98 0 121-48 117-144h-4C326-8 284 8 225 8 81 8 33-84 33-240c-1-172 82-272 250-272zM167-245c0 83 22 149 93 149 55 0 75-25 90-68v-225c-21-9-46-13-77-13-80 0-107 63-106 157" id="s"/><g id="a"><use transform="matrix(0.018,0,0,0.018,0,0)" xlink:href="#q"/><use transform="matrix(0.018,0,0,0.018,4.842,0)" xlink:href="#r"/><use transform="matrix(0.018,0,0,0.018,19.331999999999997,0)" xlink:href="#s"/></g><path fill="#444" d="M63-93c59 36 240 71 234-43-5-91-121-82-179-124-34-24-62-54-62-113 0-97 59-138 155-139 66-1 112 13 154 32l-19 66c-52-26-221-63-210 39 9 83 124 74 178 118 33 27 64 57 63 118-3 103-68 149-174 151C134 13 81-3 39-25" id="t"/><path fill="#444" d="M152-439c26-60 97-88 178-61l-17 77c-74-29-156 5-156 73V0H77v-500h56l15 61h4" id="u"/><path fill="#444" d="M281-58c46 1 86-17 111-36l26 61c-37 28-94 45-157 45C104 12 53-93 49-250c-5-188 108-294 299-254 22 5 42 12 60 21l-23 69c-29-16-66-28-111-28-95 0-142 64-142 192 0 110 39 189 149 192" id="v"/><path fill="#444" d="M40-457h424v72H40v-72zm0 166h424v72H40v-72" id="w"/><path fill="#444" d="M207-700h78l-31 193h-47v-193zm-117 0h78l-31 193H90v-193" id="x"/><path fill="#444" d="M422-354c0 120-19 253 8 356h-59l-21-70h-5C315-22 265 8 189 8 98 8 39-43 39-134c0-147 152-157 302-151 10-93 1-159-99-153-57 4-110 14-148 35l-25-60c48-30 118-45 194-45 108-1 159 51 159 154zM122-142c-2 47 40 81 89 80 67-1 109-32 130-79v-83c-95-3-214-10-219 82" id="y"/><path fill="#444" d="M200 12C109 10 89-39 89-138v-292H11v-70h78v-99l80-23v122h136v70H169v277c1 59 6 93 57 95 38 1 55-9 84-20l18 61c-35 17-77 30-128 29" id="z"/><path fill="#444" d="M106 12c-34 0-57-24-57-58 0-35 22-58 57-58s60 22 59 58c0 34-24 58-59 58" id="A"/><path fill="#444" d="M262 12c-51 0-69-5-105-20v208H77v-700h55l15 60h4c28-43 75-72 143-72 149 0 198 89 198 252 0 161-73 272-230 272zm147-273c-1-103-28-181-130-181-75 0-107 41-122 107v248c27 20 53 30 102 29 104-2 152-86 150-203" id="B"/><path fill="#444" d="M313-512c130 0 165 79 165 210V0h-80v-285c-2-94-16-155-105-157-72-1-118 46-136 100V0H77v-500h56l15 61h4c32-42 86-73 161-73" id="C"/><path fill="#444" d="M290-509c71-1 121 13 170 30V23c0 132-72 189-204 189-71 0-115-8-159-27l21-68c37 13 69 25 124 25 122 0 148-66 139-191h-4c-28 39-65 61-132 60C95 9 50-86 49-248c-1-166 78-261 241-261zM132-249c2 104 25 190 127 190 75 0 106-39 121-105v-256c-27-13-61-19-102-19-103 0-147 74-146 190" id="D"/><g id="b"><use transform="matrix(0.018,0,0,0.018,0,0)" xlink:href="#t"/><use transform="matrix(0.018,0,0,0.018,7.577999999999999,0)" xlink:href="#u"/><use transform="matrix(0.018,0,0,0.018,13.697999999999999,0)" xlink:href="#v"/><use transform="matrix(0.018,0,0,0.018,21.815999999999995,0)" xlink:href="#w"/><use transform="matrix(0.018,0,0,0.018,30.905999999999995,0)" xlink:href="#x"/><use transform="matrix(0.018,0,0,0.018,35.117999999999995,0)" xlink:href="#v"/><use transform="matrix(0.018,0,0,0.018,43.23599999999999,0)" xlink:href="#y"/><use transform="matrix(0.018,0,0,0.018,52.16399999999999,0)" xlink:href="#z"/><use transform="matrix(0.018,0,0,0.018,58.55399999999998,0)" xlink:href="#A"/><use transform="matrix(0.018,0,0,0.018,62.40599999999998,0)" xlink:href="#B"/><use transform="matrix(0.018,0,0,0.018,72.14399999999998,0)" xlink:href="#C"/><use transform="matrix(0.018,0,0,0.018,81.98999999999998,0)" xlink:href="#D"/><use transform="matrix(0.018,0,0,0.018,91.65599999999998,0)" xlink:href="#x"/></g><path fill="#444" fill-opacity=".4" d="M422-354c0 120-19 253 8 356h-59l-21-70h-5C315-22 265 8 189 8 98 8 39-43 39-134c0-147 152-157 302-151 10-93 1-159-99-153-57 4-110 14-148 35l-25-60c48-30 118-45 194-45 108-1 159 51 159 154zM122-142c-2 47 40 81 89 80 67-1 109-32 130-79v-83c-95-3-214-10-219 82" id="E"/><path fill="#444" fill-opacity=".4" d="M189 12C123 10 86-25 86-100v-600h80v577c-10 72 59 74 108 54l9 63c-18 10-66 18-94 18" id="F"/><path fill="#444" fill-opacity=".4" d="M200 12C109 10 89-39 89-138v-292H11v-70h78v-99l80-23v122h136v70H169v277c1 59 6 93 57 95 38 1 55-9 84-20l18 61c-35 17-77 30-128 29" id="G"/><path fill="#444" fill-opacity=".4" d="M40-457h424v72H40v-72zm0 166h424v72H40v-72" id="H"/><path fill="#444" fill-opacity=".4" d="M207-700h78l-31 193h-47v-193zm-117 0h78l-31 193H90v-193" id="I"/><path fill="#444" fill-opacity=".4" d="M265-257c-129 0-191-65-190-196v-247h83v232c0 91 41 137 124 137 62 0 121-18 155-46v-323h83V0h-83v-302c-41 21-104 45-172 45" id="J"/><path fill="#444" fill-opacity=".4" d="M293-58c43 0 98-19 119-40l30 58C404-9 338 12 270 12 112 10 51-92 49-250c-1-159 70-258 220-262 155-4 211 110 184 270H132c0 116 45 184 161 184zm88-247c1-92-30-137-111-137-89 0-129 46-137 137h248" id="K"/><path fill="#444" fill-opacity=".4" d="M262 12c-51 0-69-5-105-20v208H77v-700h55l15 60h4c28-43 75-72 143-72 149 0 198 89 198 252 0 161-73 272-230 272zm147-273c-1-103-28-181-130-181-75 0-107 41-122 107v248c27 20 53 30 102 29 104-2 152-86 150-203" id="L"/><path fill="#444" fill-opacity=".4" d="M383-221H157V0H77v-500h80v209h226v-209h80V0h-80v-221" id="M"/><path fill="#444" fill-opacity=".4" d="M231-250c-25 0-54 0-74 7v173c25 4 48 6 71 6 77 1 113-26 113-94 0-62-38-94-110-92zm193 83C419-35 351 5 210 6c-43 0-87-2-133-6v-500h80v191c135-22 272 2 267 142zm79-333h80V0h-80v-500" id="N"/><path fill="#444" fill-opacity=".4" d="M389 0c1-119-3-244 3-358h-3C308-231 211-120 123 0H77v-500h80c-1 121 3 248-3 364h4c81-128 177-242 264-364h47V0h-80zm45-682c-4 132-227 159-290 56-10-15-17-32-20-52l68-24c10 53 38 82 91 82 51 0 82-31 91-81" id="O"/><g id="c"><use transform="matrix(0.018,0,0,0.018,0,0)" xlink:href="#E"/><use transform="matrix(0.018,0,0,0.018,8.927999999999999,0)" xlink:href="#F"/><use transform="matrix(0.018,0,0,0.018,14.183999999999997,0)" xlink:href="#G"/><use transform="matrix(0.018,0,0,0.018,20.285999999999998,0)" xlink:href="#H"/><use transform="matrix(0.018,0,0,0.018,29.375999999999998,0)" xlink:href="#I"/><use transform="matrix(0.018,0,0,0.018,35.406,0)" xlink:href="#J"/><use transform="matrix(0.018,0,0,0.018,46.296,0)" xlink:href="#K"/><use transform="matrix(0.018,0,0,0.018,55.44,0)" xlink:href="#L"/><use transform="matrix(0.018,0,0,0.018,65.178,0)" xlink:href="#M"/><use transform="matrix(0.018,0,0,0.018,74.898,0)" xlink:href="#N"/><use transform="matrix(0.018,0,0,0.018,86.77799999999999,0)" xlink:href="#O"/></g><path fill="#444" fill-opacity=".4" d="M203-225h-46V0H77v-500h80v226l43-14 160-212h87L292-299l-42 33 52 40L469 0h-99" id="P"/><path fill="#444" fill-opacity=".4" d="M268 12C112 12 51-93 49-250c-1-158 69-262 219-262 156 0 217 105 219 262 1 158-69 262-219 262zm136-262c0-105-32-190-136-192-91-2-136 63-136 192 0 105 33 189 136 192 91 2 136-63 136-192" id="Q"/><path fill="#444" fill-opacity=".4" d="M395-430H239V0h-80v-430H3v-70h392v70" id="R"/><g id="d"><use transform="matrix(0.018,0,0,0.018,0,0)" xlink:href="#P"/><use transform="matrix(0.018,0,0,0.018,8.478,0)" xlink:href="#Q"/><use transform="matrix(0.018,0,0,0.018,17.838,0)" xlink:href="#R"/></g><path fill="#444" fill-opacity=".4" d="M104-500c49 140 107 271 148 420h5c31-148 79-280 119-420h81C396-319 339-134 276 44c-20 55-46 106-82 140-28 26-82 25-117 11l14-69c34 12 54 2 79-24 17-20 32-54 43-102L12-500h92" id="S"/><path fill="#444" fill-opacity=".4" d="M77 0v-500h80v430h171v-430h80v430h171v-430h80V0H77" id="T"/><path fill="#444" fill-opacity=".4" d="M422-354c0 120-19 253 8 356h-59l-21-70h-5C315-22 265 8 189 8 98 8 39-43 39-134c0-147 152-157 302-151 10-93 1-159-99-153-57 4-110 14-148 35l-25-60c48-30 118-45 194-45 108-1 159 51 159 154zM122-142c-2 47 40 81 89 80 67-1 109-32 130-79v-83c-95-3-214-10-219 82" id="U"/><g id="e"><use transform="matrix(0.018,0,0,0.018,0,0)" xlink:href="#P"/><use transform="matrix(0.018,0,0,0.018,8.604,0)" xlink:href="#S"/><use transform="matrix(0.018,0,0,0.018,16.991999999999997,0)" xlink:href="#T"/><use transform="matrix(0.018,0,0,0.018,30.239999999999995,0)" xlink:href="#U"/><use transform="matrix(0.018,0,0,0.018,39.16799999999999,0)" xlink:href="#K"/><use transform="matrix(0.018,0,0,0.018,48.31199999999999,0)" xlink:href="#R"/></g><path fill="#444" fill-opacity=".4" d="M269 12C99 12 49-112 49-303c0-196 27-346 191-377 69-13 164-7 204-45l9 72c-60 57-216 15-277 77-37 37-50 89-56 165h3c41-59 81-87 173-87 133 0 191 94 191 237 0 164-67 273-218 273zm135-266c0-96-28-172-122-174-109-2-150 69-150 179 0 104 34 191 136 191 104 0 136-81 136-196" id="V"/><g id="f"><use transform="matrix(0.018,0,0,0.018,0,0)" xlink:href="#L"/><use transform="matrix(0.018,0,0,0.018,9.738,0)" xlink:href="#N"/><use transform="matrix(0.018,0,0,0.018,21.618,0)" xlink:href="#V"/><use transform="matrix(0.018,0,0,0.018,31.049999999999997,0)" xlink:href="#S"/><use transform="matrix(0.018,0,0,0.018,39.437999999999995,0)" xlink:href="#I"/></g><path fill="#444" d="M94-500h80V0H94v-500zm38-99c-31 0-55-23-55-53s24-56 55-56 58 26 58 56-28 53-58 53" id="W"/><path fill="#444" d="M59-325h242v74H59v-74" id="X"/><path fill="#444" d="M189 12C123 10 86-25 86-100v-600h80v577c-10 72 59 74 108 54l9 63c-18 10-66 18-94 18" id="Y"/><path fill="#444" d="M247 9C183 10 114-8 77-29v-671h80v249h4c28-36 76-61 136-61 144 0 194 97 194 254C491-91 407 8 247 9zm161-268c-2-100-27-183-125-183-74 0-109 46-126 107v252c24 14 63 22 102 22 105 0 151-78 149-198" id="Z"/><path fill="#444" d="M293-58c43 0 98-19 119-40l30 58C404-9 338 12 270 12 112 10 51-92 49-250c-1-159 70-258 220-262 155-4 211 110 184 270H132c0 116 45 184 161 184zm88-247c1-92-30-137-111-137-89 0-129 46-137 137h248" id="aa"/><path fill="#444" d="M276-509c50 0 69 4 105 17v-208h80v528c1 67-1 118 10 174h-54l-20-71h-4c-25 44-78 82-147 81C97 8 50-86 49-248c-1-159 77-260 227-261zM132-248c1 104 26 190 127 190 75 0 108-41 122-107v-248c-27-20-53-26-102-26-105 0-148 72-147 191" id="ab"/><path fill="#444" d="M104-500c49 140 107 271 148 420h5c31-148 79-280 119-420h81C396-319 339-134 276 44c-20 55-46 106-82 140-28 26-82 25-117 11l14-69c34 12 54 2 79-24 17-20 32-54 43-102L12-500h92" id="ac"/><g id="g"><use transform="matrix(0.018,0,0,0.018,0,0)" xlink:href="#y"/><use transform="matrix(0.018,0,0,0.018,8.927999999999999,0)" xlink:href="#u"/><use transform="matrix(0.018,0,0,0.018,15.047999999999998,0)" xlink:href="#W"/><use transform="matrix(0.018,0,0,0.018,19.872,0)" xlink:href="#y"/><use transform="matrix(0.018,0,0,0.018,28.799999999999997,0)" xlink:href="#X"/><use transform="matrix(0.018,0,0,0.018,35.279999999999994,0)" xlink:href="#Y"/><use transform="matrix(0.018,0,0,0.018,40.535999999999994,0)" xlink:href="#y"/><use transform="matrix(0.018,0,0,0.018,49.46399999999999,0)" xlink:href="#Z"/><use transform="matrix(0.018,0,0,0.018,59.18399999999999,0)" xlink:href="#aa"/><use transform="matrix(0.018,0,0,0.018,68.32799999999999,0)" xlink:href="#Y"/><use transform="matrix(0.018,0,0,0.018,73.58399999999999,0)" xlink:href="#Y"/><use transform="matrix(0.018,0,0,0.018,78.83999999999999,0)" xlink:href="#aa"/><use transform="matrix(0.018,0,0,0.018,87.984,0)" xlink:href="#ab"/><use transform="matrix(0.018,0,0,0.018,97.66799999999999,0)" xlink:href="#Z"/><use transform="matrix(0.018,0,0,0.018,107.172,0)" xlink:href="#ac"/><use transform="matrix(0.018,0,0,0.018,115.56,0)" xlink:href="#w"/><use transform="matrix(0.018,0,0,0.018,124.65,0)" xlink:href="#x"/><use transform="matrix(0.018,0,0,0.018,130.68,0)" xlink:href="#Y"/><use transform="matrix(0.018,0,0,0.018,135.936,0)" xlink:href="#y"/><use transform="matrix(0.018,0,0,0.018,144.864,0)" xlink:href="#Z"/><use transform="matrix(0.018,0,0,0.018,154.58399999999997,0)" xlink:href="#aa"/><use transform="matrix(0.018,0,0,0.018,163.728,0)" xlink:href="#Y"/><use transform="matrix(0.018,0,0,0.018,168.984,0)" xlink:href="#x"/></g><path fill="#444" d="M200-90c53 9 88-53 47-80-80-53-213-55-211-192 2-102 65-152 171-152 67 0 135 17 175 39l-29 94c-31-11-84-29-129-29-54 0-78 51-41 74 81 50 213 53 211 187-2 110-75 163-194 163C133 14 65-7 25-31l36-97c31 17 89 40 139 38" id="ad"/><path fill="#444" d="M278 14c-42 0-63-5-91-19v205H57v-700h95l15 60h4c33-47 73-74 148-74 142 0 188 93 188 251 0 164-68 277-229 277zm95-280c0-79-20-138-93-138-57 0-77 30-93 76v208c20 15 38 25 74 24 90-3 112-66 112-170" id="ae"/><path fill="#444" d="M306-378c-38-49-172-17-221 4l-31-97c53-24 132-39 210-39 122 0 181 55 180 175-1 112-20 242 11 336H349l-21-69h-5c-28 41-74 78-147 76C81 5 23-45 23-138c0-142 140-164 291-160 5-37 4-65-8-80zM157-158c-3 37 24 59 62 59 49 0 79-27 96-55v-65c-71-4-153-3-158 61" id="af"/><path fill="#444" d="M338-514c121 0 155 79 155 203V0H363v-284c-1-72-12-113-77-115-52-1-86 36-99 75V0H57v-500h103l15 66h4c32-43 81-80 159-80" id="ag"/><g id="h"><use transform="matrix(0.018,0,0,0.018,0,0)" xlink:href="#ad"/><use transform="matrix(0.018,0,0,0.018,7.595999999999999,0)" xlink:href="#ae"/><use transform="matrix(0.018,0,0,0.018,17.316,0)" xlink:href="#af"/><use transform="matrix(0.018,0,0,0.018,26.244,0)" xlink:href="#ag"/></g><g id="i"><use transform="matrix(0.018,0,0,0.018,0,0)" xlink:href="#W"/><use transform="matrix(0.018,0,0,0.018,4.824,0)" xlink:href="#ab"/><use transform="matrix(0.018,0,0,0.018,14.508,0)" xlink:href="#w"/><use transform="matrix(0.018,0,0,0.018,23.598,0)" xlink:href="#x"/><use transform="matrix(0.018,0,0,0.018,29.628,0)" xlink:href="#Y"/><use transform="matrix(0.018,0,0,0.018,34.884,0)" xlink:href="#y"/><use transform="matrix(0.018,0,0,0.018,43.812,0)" xlink:href="#Z"/><use transform="matrix(0.018,0,0,0.018,53.532,0)" xlink:href="#aa"/><use transform="matrix(0.018,0,0,0.018,62.675999999999995,0)" xlink:href="#Y"/><use transform="matrix(0.018,0,0,0.018,67.93199999999999,0)" xlink:href="#x"/></g><path fill="#444" d="M208 14C110 12 74-35 74-138v-252H5v-110h69v-94l130-37v131h122v110H204v192c2 58 2 97 50 97 30 0 44-6 67-16l23 100c-34 16-86 31-136 31" id="ah"/><path fill="#444" d="M291-90c49 0 97-19 123-38l43 85c-40 32-117 57-191 57C103 14 34-89 33-250c-2-167 81-264 240-264 129 0 199 68 200 202 0 33-4 65-10 95H163c5 84 39 127 128 127zm61-208c5-67-19-112-81-112-71-1-98 47-105 112h186" id="ai"/><path fill="#444" d="M170-256L20-500h155c34 56 71 109 93 177 24-68 63-121 98-177h141L356-260 517 0H366c-38-62-83-118-107-194-26 75-70 132-109 194H8" id="aj"/><g id="j"><use transform="matrix(0.018,0,0,0.018,0,0)" xlink:href="#ah"/><use transform="matrix(0.018,0,0,0.018,6.191999999999999,0)" xlink:href="#ai"/><use transform="matrix(0.018,0,0,0.018,14.957999999999998,0)" xlink:href="#aj"/><use transform="matrix(0.018,0,0,0.018,24.407999999999998,0)" xlink:href="#ah"/></g><path fill="#444" d="M522-493c0 190-158 248-354 227V0H85v-693c48-12 110-15 169-15 155 0 268 57 268 215zm-88 0c0-134-136-157-266-137v290c139 17 266-9 266-153" id="ak"/><path fill="#444" d="M231-250c-25 0-54 0-74 7v173c25 4 48 6 71 6 77 1 113-26 113-94 0-62-38-94-110-92zm193 83C419-35 351 5 210 6c-43 0-87-2-133-6v-500h80v191c135-22 272 2 267 142zm79-333h80V0h-80v-500" id="al"/><path fill="#444" d="M240-221L93 0H1l158-229 34-30-51-38L12-500h85l138 216h52v-216h78v226l47-14 139-212h84L499-297l-39 32 51 40L659 0h-95L417-225h-52V0h-78v-235" id="am"/><path fill="#444" d="M389 0c1-119-3-244 3-358h-3C308-231 211-120 123 0H77v-500h80c-1 121 3 248-3 364h4c81-128 177-242 264-364h47V0h-80" id="an"/><path fill="#444" d="M389 0c1-119-3-244 3-358h-3C308-231 211-120 123 0H77v-500h80c-1 121 3 248-3 364h4c81-128 177-242 264-364h47V0h-80zm45-682c-4 132-227 159-290 56-10-15-17-32-20-52l68-24c10 53 38 82 91 82 51 0 82-31 91-81" id="ao"/><g id="k"><use transform="matrix(0.018,0,0,0.018,0,0)" xlink:href="#ak"/><use transform="matrix(0.018,0,0,0.018,9.45,0)" xlink:href="#al"/><use transform="matrix(0.018,0,0,0.018,21.33,0)" xlink:href="#am"/><use transform="matrix(0.018,0,0,0.018,33.19199999999999,0)" xlink:href="#an"/><use transform="matrix(0.018,0,0,0.018,43.019999999999996,0)" xlink:href="#ao"/></g><path fill="#444" d="M203-225h-46V0H77v-500h80v226l43-14 160-212h87L292-299l-42 33 52 40L469 0h-99" id="ap"/><path fill="#444" d="M268 12C112 12 51-93 49-250c-1-158 69-262 219-262 156 0 217 105 219 262 1 158-69 262-219 262zm136-262c0-105-32-190-136-192-91-2-136 63-136 192 0 105 33 189 136 192 91 2 136-63 136-192" id="aq"/><path fill="#444" d="M395-430H239V0h-80v-430H3v-70h392v70" id="ar"/><g id="l"><use transform="matrix(0.018,0,0,0.018,0,0)" xlink:href="#ap"/><use transform="matrix(0.018,0,0,0.018,8.478,0)" xlink:href="#aq"/><use transform="matrix(0.018,0,0,0.018,17.838,0)" xlink:href="#ar"/></g><path fill="#444" d="M281-58c46 1 86-17 111-36l26 61c-37 28-94 45-157 45C104 12 53-93 49-250c-5-188 108-294 299-254 22 5 42 12 60 21l-23 69c-29-16-66-28-111-28-95 0-142 64-142 192 0 110 39 189 149 192" id="as"/><path fill="#444" d="M378-430H157V0H77v-500h381V0h-80v-430" id="at"/><g id="m"><use transform="matrix(0.018,0,0,0.018,0,0)" xlink:href="#as"/><use transform="matrix(0.018,0,0,0.018,8.117999999999999,0)" xlink:href="#at"/><use transform="matrix(0.018,0,0,0.018,17.747999999999998,0)" xlink:href="#an"/><use transform="matrix(0.018,0,0,0.018,27.575999999999997,0)" xlink:href="#ar"/></g><path fill="#444" d="M383-221H157V0H77v-500h80v209h226v-209h80V0h-80v-221" id="au"/><path fill="#444" d="M422-354c0 120-19 253 8 356h-59l-21-70h-5C315-22 265 8 189 8 98 8 39-43 39-134c0-147 152-157 302-151 10-93 1-159-99-153-57 4-110 14-148 35l-25-60c48-30 118-45 194-45 108-1 159 51 159 154zM122-142c-2 47 40 81 89 80 67-1 109-32 130-79v-83c-95-3-214-10-219 82" id="av"/><g id="n"><use transform="matrix(0.018,0,0,0.018,0,0)" xlink:href="#au"/><use transform="matrix(0.018,0,0,0.018,9.719999999999999,0)" xlink:href="#av"/></g><path fill="#444" d="M346-430H201c-12 154-13 330-95 414C82 10 30 8-5-5L7-72c59 14 77-23 90-78 23-100 27-207 31-350h298V0h-80v-430" id="aw"/><path fill="#444" d="M226 7C171 7 126 3 77-1v-498c58-3 101-9 169-8 114 1 185 24 185 123 0 58-35 103-88 118v4c71 13 107 45 107 121C450-22 357 6 226 7zm144-154c-4-62-47-82-125-81h-88v161c91 6 219 17 213-80zM243-437c-37 0-55 1-86 3v145c93 3 194 6 194-77 0-63-37-69-108-71" id="ax"/><path fill="#444" d="M104-500c49 140 107 271 148 420h5c31-148 79-280 119-420h81C396-319 339-134 276 44c-20 55-46 106-82 140-28 26-82 25-117 11l14-69c34 12 54 2 79-24 17-20 32-54 43-102L12-500h92" id="ay"/><path fill="#444" d="M262 12c-51 0-69-5-105-20v208H77v-700h55l15 60h4c28-43 75-72 143-72 149 0 198 89 198 252 0 161-73 272-230 272zm147-273c-1-103-28-181-130-181-75 0-107 41-122 107v248c27 20 53 30 102 29 104-2 152-86 150-203" id="az"/><path fill="#444" d="M293-58c43 0 98-19 119-40l30 58C404-9 338 12 270 12 112 10 51-92 49-250c-1-159 70-258 220-262 155-4 211 110 184 270H132c0 116 45 184 161 184zm88-247c1-92-30-137-111-137-89 0-129 46-137 137h248" id="aA"/><g id="o"><use transform="matrix(0.018,0,0,0.018,0,0)" xlink:href="#ap"/><use transform="matrix(0.018,0,0,0.018,8.604,0)" xlink:href="#aw"/><use transform="matrix(0.018,0,0,0.018,17.657999999999998,0)" xlink:href="#av"/><use transform="matrix(0.018,0,0,0.018,26.586,0)" xlink:href="#ax"/><use transform="matrix(0.018,0,0,0.018,35.568,0)" xlink:href="#an"/><use transform="matrix(0.018,0,0,0.018,45.39600000000001,0)" xlink:href="#av"/><use transform="matrix(0.018,0,0,0.018,54.324,0)" xlink:href="#ar"/><use transform="matrix(0.018,0,0,0.018,61.47,0)" xlink:href="#ay"/><use transform="matrix(0.018,0,0,0.018,69.858,0)" xlink:href="#az"/><use transform="matrix(0.018,0,0,0.018,79.596,0)" xlink:href="#aA"/></g><g id="p"><use transform="matrix(0.018,0,0,0.018,0,0)" xlink:href="#y"/><use transform="matrix(0.018,0,0,0.018,8.927999999999999,0)" xlink:href="#u"/><use transform="matrix(0.018,0,0,0.018,15.047999999999998,0)" xlink:href="#W"/><use transform="matrix(0.018,0,0,0.018,19.872,0)" xlink:href="#y"/><use transform="matrix(0.018,0,0,0.018,28.799999999999997,0)" xlink:href="#X"/><use transform="matrix(0.018,0,0,0.018,35.279999999999994,0)" xlink:href="#Y"/><use transform="matrix(0.018,0,0,0.018,40.535999999999994,0)" xlink:href="#y"/><use transform="matrix(0.018,0,0,0.018,49.46399999999999,0)" xlink:href="#Z"/><use transform="matrix(0.018,0,0,0.018,59.18399999999999,0)" xlink:href="#aa"/><use transform="matrix(0.018,0,0,0.018,68.32799999999999,0)" xlink:href="#Y"/><use transform="matrix(0.018,0,0,0.018,73.58399999999999,0)" xlink:href="#Y"/><use transform="matrix(0.018,0,0,0.018,78.83999999999999,0)" xlink:href="#aa"/><use transform="matrix(0.018,0,0,0.018,87.984,0)" xlink:href="#ab"/><use transform="matrix(0.018,0,0,0.018,97.66799999999999,0)" xlink:href="#Z"/><use transform="matrix(0.018,0,0,0.018,107.172,0)" xlink:href="#ac"/></g></defs></g></svg>