<svg xmlns="http://www.w3.org/2000/svg" xmlns:xlink="http://www.w3.org/1999/xlink" xmlns:lucid="lucid" width="480" height="349.55"><g transform="translate(-60 -50.683216705194354)" lucid:page-tab-id="hi1C.I6yPw6x"><path d="M0 0h585.14v431.62H0z" fill="#fff"/><path d="M80 164c0-2.2 1.8-4 4-4h232c2.2 0 4 1.8 4 4v71c0 2.2-1.8 4-4 4H84c-2.2 0-4-1.8-4-4z" stroke="#7ab648" stroke-width="2" fill="#c7e8ac"/><path d="M80 197.17h240" stroke="#7ab648" stroke-width="2" fill="none"/><use xlink:href="#a" transform="matrix(1,0,0,1,88,168) translate(86.422 16.616)"/><use xlink:href="#b" transform="matrix(1,0,0,1,92,205.168) translate(0 19.116)"/><path d="M80 283.24c0-2.2 1.8-4 4-4h232c2.2 0 4 1.8 4 4v71c0 2.2-1.8 4-4 4H84c-2.2 0-4-1.8-4-4z" stroke="#ef8d22" stroke-width="2" fill="#ffdba9"/><path d="M80 316.4h240" stroke="#ef8d22" stroke-width="2" fill="none"/><use xlink:href="#c" transform="matrix(1,0,0,1,88,287.23710647493135) translate(96.655 16.616)"/><use xlink:href="#d" transform="matrix(1,0,0,1,92,324.40510647493136) translate(0 19.116)"/><use xlink:href="#e" transform="matrix(1,0,0,1,92,324.40510647493136) translate(65.87999999999998 19.116)"/><path d="M360 283.24c0-2.2 1.8-4 4-4h152c2.2 0 4 1.8 4 4v93c0 2.2-1.8 4-4 4H364c-2.2 0-4-1.8-4-4z" stroke="#ef8d22" stroke-width="2" fill="#ffdba9"/><path d="M360 316.4h160" stroke="#ef8d22" stroke-width="2" fill="none"/><use xlink:href="#c" transform="matrix(1,0,0,1,368,287.23710647493135) translate(56.655 16.616)"/><use xlink:href="#f" transform="matrix(1,0,0,1,372,324.40510647493136) translate(0 19.032)"/><use xlink:href="#g" transform="matrix(1,0,0,1,372,324.40510647493136) translate(95.99400000000001 19.032)"/><use xlink:href="#h" transform="matrix(1,0,0,1,372,324.40510647493136) translate(0 40.2)"/><path d="M360 164c0-2.2 1.8-4 4-4h152c2.2 0 4 1.8 4 4v71c0 2.2-1.8 4-4 4H364c-2.2 0-4-1.8-4-4z" stroke="#3aa6dd" stroke-width="2" fill="#c1e4f7"/><path d="M360 197.17h160" stroke="#3aa6dd" stroke-width="2" fill="none"/><use xlink:href="#i" transform="matrix(1,0,0,1,368,168) translate(53.973 16.616)"/><use xlink:href="#j" transform="matrix(1,0,0,1,372,205.168) translate(0 19.116)"/><path d="M200 241v18.74" stroke="#444" stroke-width="2" fill="none"/><path d="M201 241.03h-2V240h2z" fill="#444"/><path d="M200 275l-4.64-14.26h9.28z" stroke="#444" stroke-width="2" fill="#444"/><path d="M440 241v18.74" stroke="#444" stroke-width="2" fill="none"/><path d="M441 241.03h-2V240h2z" fill="#444"/><path d="M440 275l-4.64-14.26h9.28z" stroke="#444" stroke-width="2" fill="#444"/><path d="M200.02 158l.03-1.38.14-2.3.23-2.26.32-2.2.4-2.14.5-2.1.6-2.08.65-2.05.76-2.03.84-2 .94-2 1.04-2 1.15-2 1.26-1.98 1.38-2 1.53-2 1.68-2.03 1.83-2.04 2.02-2.05 2.2-2.08 2.45-2.1 2.67-2.12 2.95-2.14 3.25-2.16 3.6-2.18 3.97-2.18 4.4-2.18 4.86-2.16 5.37-2.13 5.9-2.05 6.5-1.96 7.08-1.82 7.67-1.62 8.23-1.4 8.72-1.1 9.1-.76 9.37-.4h9.44l9.36.4 9.1.77 8.73 1.1 8.23 1.4 7.67 1.63 7.08 1.8 6.5 1.97 5.9 2.06 5.36 2.12 4.85 2.16 4.4 2.18 3.97 2.2 3.6 2.16 3.25 2.17 2.95 2.14 2.68 2.1 2.43 2.1 2.2 2.08 2.02 2.06 1.84 2.03 1.66 2.02 1.52 2 1.4 2 1.25 1.98 1.15 2 1.04 1.98.94 2 .85 2 .52 1.4" stroke="#444" stroke-width="2" fill="none"/><path d="M201.02 158l-.02 1h-2l.02-1.05z" fill="#444"/><path d="M440.1 155.8l-7-13.26 9.15-1.58z" stroke="#444" stroke-width="2" fill="#444"/><g><use xlink:href="#k" transform="matrix(1,0,0,1,256.7379092813726,61.683216705194354) translate(0 16.2)"/></g><defs><path fill="#444" d="M254 12C182 13 102-2 57-22v-678h130v240h4c26-30 72-53 127-52 135 3 185 99 185 249 0 170-87 274-249 275zm7-110c84 0 108-64 108-161 0-95-30-143-89-143-53 1-78 30-93 72v218c20 10 44 14 74 14" id="l"/><path fill="#444" d="M211 14C88 14 52-63 52-189v-311h130v284c2 72 6 113 71 115 52 1 83-37 98-76v-323h130c6 167-14 358 16 500h-98l-23-74h-4c-29 48-84 88-161 88" id="m"/><path fill="#444" d="M208 14C110 12 74-35 74-138v-252H5v-110h69v-94l130-37v131h122v110H204v192c2 58 2 97 50 97 30 0 44-6 67-16l23 100c-34 16-86 31-136 31" id="n"/><path fill="#444" d="M269 14C107 14 36-88 33-250c-2-161 81-264 236-264 162 0 233 102 235 264 2 161-80 264-235 264zm0-418c-78 0-104 61-102 154 1 82 21 154 102 154 80 0 101-62 101-154 0-83-21-154-101-154" id="o"/><path fill="#444" d="M338-514c121 0 155 79 155 203V0H363v-284c-1-72-12-113-77-115-52-1-86 36-99 75V0H57v-500h103l15 66h4c32-43 81-80 159-80" id="p"/><g id="a"><use transform="matrix(0.018,0,0,0.018,0,0)" xlink:href="#l"/><use transform="matrix(0.018,0,0,0.018,9.648,0)" xlink:href="#m"/><use transform="matrix(0.018,0,0,0.018,19.332000000000004,0)" xlink:href="#n"/><use transform="matrix(0.018,0,0,0.018,25.488,0)" xlink:href="#n"/><use transform="matrix(0.018,0,0,0.018,31.680000000000003,0)" xlink:href="#o"/><use transform="matrix(0.018,0,0,0.018,41.346,0)" xlink:href="#p"/></g><path fill="#444" d="M422-354c0 120-19 253 8 356h-59l-21-70h-5C315-22 265 8 189 8 98 8 39-43 39-134c0-147 152-157 302-151 10-93 1-159-99-153-57 4-110 14-148 35l-25-60c48-30 118-45 194-45 108-1 159 51 159 154zM122-142c-2 47 40 81 89 80 67-1 109-32 130-79v-83c-95-3-214-10-219 82" id="q"/><path fill="#444" d="M152-439c26-60 97-88 178-61l-17 77c-74-29-156 5-156 73V0H77v-500h56l15 61h4" id="r"/><path fill="#444" d="M94-500h80V0H94v-500zm38-99c-31 0-55-23-55-53s24-56 55-56 58 26 58 56-28 53-58 53" id="s"/><path fill="#444" d="M59-325h242v74H59v-74" id="t"/><path fill="#444" d="M276-509c50 0 69 4 105 17v-208h80v528c1 67-1 118 10 174h-54l-20-71h-4c-25 44-78 82-147 81C97 8 50-86 49-248c-1-159 77-260 227-261zM132-248c1 104 26 190 127 190 75 0 108-41 122-107v-248c-27-20-53-26-102-26-105 0-148 72-147 191" id="u"/><path fill="#444" d="M293-58c43 0 98-19 119-40l30 58C404-9 338 12 270 12 112 10 51-92 49-250c-1-159 70-258 220-262 155-4 211 110 184 270H132c0 116 45 184 161 184zm88-247c1-92-30-137-111-137-89 0-129 46-137 137h248" id="v"/><path fill="#444" d="M63-93c59 36 240 71 234-43-5-91-121-82-179-124-34-24-62-54-62-113 0-97 59-138 155-139 66-1 112 13 154 32l-19 66c-52-26-221-63-210 39 9 83 124 74 178 118 33 27 64 57 63 118-3 103-68 149-174 151C134 13 81-3 39-25" id="w"/><path fill="#444" d="M281-58c46 1 86-17 111-36l26 61c-37 28-94 45-157 45C104 12 53-93 49-250c-5-188 108-294 299-254 22 5 42 12 60 21l-23 69c-29-16-66-28-111-28-95 0-142 64-142 192 0 110 39 189 149 192" id="x"/><path fill="#444" d="M247 9C183 10 114-8 77-29v-671h80v249h4c28-36 76-61 136-61 144 0 194 97 194 254C491-91 407 8 247 9zm161-268c-2-100-27-183-125-183-74 0-109 46-126 107v252c24 14 63 22 102 22 105 0 151-78 149-198" id="y"/><path fill="#444" d="M104-500c49 140 107 271 148 420h5c31-148 79-280 119-420h81C396-319 339-134 276 44c-20 55-46 106-82 140-28 26-82 25-117 11l14-69c34 12 54 2 79-24 17-20 32-54 43-102L12-500h92" id="z"/><path fill="#444" d="M40-457h424v72H40v-72zm0 166h424v72H40v-72" id="A"/><path fill="#444" d="M207-700h78l-31 193h-47v-193zm-117 0h78l-31 193H90v-193" id="B"/><g id="b"><use transform="matrix(0.018,0,0,0.018,0,0)" xlink:href="#q"/><use transform="matrix(0.018,0,0,0.018,8.927999999999999,0)" xlink:href="#r"/><use transform="matrix(0.018,0,0,0.018,15.047999999999998,0)" xlink:href="#s"/><use transform="matrix(0.018,0,0,0.018,19.872,0)" xlink:href="#q"/><use transform="matrix(0.018,0,0,0.018,28.799999999999997,0)" xlink:href="#t"/><use transform="matrix(0.018,0,0,0.018,35.279999999999994,0)" xlink:href="#u"/><use transform="matrix(0.018,0,0,0.018,44.96399999999999,0)" xlink:href="#v"/><use transform="matrix(0.018,0,0,0.018,54.10799999999999,0)" xlink:href="#w"/><use transform="matrix(0.018,0,0,0.018,61.68599999999999,0)" xlink:href="#x"/><use transform="matrix(0.018,0,0,0.018,69.80399999999999,0)" xlink:href="#r"/><use transform="matrix(0.018,0,0,0.018,75.92399999999999,0)" xlink:href="#s"/><use transform="matrix(0.018,0,0,0.018,80.74799999999999,0)" xlink:href="#y"/><use transform="matrix(0.018,0,0,0.018,90.46799999999999,0)" xlink:href="#v"/><use transform="matrix(0.018,0,0,0.018,99.612,0)" xlink:href="#u"/><use transform="matrix(0.018,0,0,0.018,109.29599999999999,0)" xlink:href="#y"/><use transform="matrix(0.018,0,0,0.018,118.8,0)" xlink:href="#z"/><use transform="matrix(0.018,0,0,0.018,127.188,0)" xlink:href="#A"/><use transform="matrix(0.018,0,0,0.018,136.278,0)" xlink:href="#B"/><use transform="matrix(0.018,0,0,0.018,142.308,0)" xlink:href="#u"/><use transform="matrix(0.018,0,0,0.018,151.992,0)" xlink:href="#v"/><use transform="matrix(0.018,0,0,0.018,161.136,0)" xlink:href="#w"/><use transform="matrix(0.018,0,0,0.018,168.714,0)" xlink:href="#x"/><use transform="matrix(0.018,0,0,0.018,176.57999999999998,0)" xlink:href="#B"/></g><path fill="#444" d="M291-90c49 0 97-19 123-38l43 85c-40 32-117 57-191 57C103 14 34-89 33-250c-2-167 81-264 240-264 129 0 199 68 200 202 0 33-4 65-10 95H163c5 84 39 127 128 127zm61-208c5-67-19-112-81-112-71-1-98 47-105 112h186" id="C"/><path fill="#444" d="M170-256L20-500h155c34 56 71 109 93 177 24-68 63-121 98-177h141L356-260 517 0H366c-38-62-83-118-107-194-26 75-70 132-109 194H8" id="D"/><g id="c"><use transform="matrix(0.018,0,0,0.018,0,0)" xlink:href="#n"/><use transform="matrix(0.018,0,0,0.018,6.191999999999999,0)" xlink:href="#C"/><use transform="matrix(0.018,0,0,0.018,14.957999999999998,0)" xlink:href="#D"/><use transform="matrix(0.018,0,0,0.018,24.407999999999998,0)" xlink:href="#n"/></g><path fill="#444" d="M378-62c56 2 101-12 135-32l20 65C494 2 428 12 359 12 150 12 58-132 56-350c-2-250 141-394 402-356 25 4 47 11 65 18l-20 73c-32-15-78-23-137-23-158 0-222 119-222 288S215-68 378-62" id="E"/><path fill="#444" d="M64-70c60-104 75-258 80-430h302v430h73v197h-54L450 0H74L59 127H5V-70h59zm152-360c-8 132-25 268-72 360h222v-360H216" id="F"/><path fill="#444" d="M293-58c43 0 98-19 119-40l30 58C404-9 338 12 270 12 112 10 51-92 49-250c-1-159 70-258 220-262 155-4 211 110 184 270H132c0 116 45 184 161 184zm88-247c1-92-30-137-111-137-89 0-129 46-137 137h248" id="G"/><path fill="#444" d="M346-430H201c-12 154-13 330-95 414C82 10 30 8-5-5L7-72c59 14 77-23 90-78 23-100 27-207 31-350h298V0h-80v-430" id="H"/><path fill="#444" d="M422-354c0 120-19 253 8 356h-59l-21-70h-5C315-22 265 8 189 8 98 8 39-43 39-134c0-147 152-157 302-151 10-93 1-159-99-153-57 4-110 14-148 35l-25-60c48-30 118-45 194-45 108-1 159 51 159 154zM122-142c-2 47 40 81 89 80 67-1 109-32 130-79v-83c-95-3-214-10-219 82" id="I"/><path fill="#444" d="M395-430H239V0h-80v-430H3v-70h392v70" id="J"/><path fill="#444" d="M351-158c0-89-105-105-194-85v173c92 16 194 5 194-88zm83-9C431-34 352 5 210 6c-43 0-87-2-133-6v-500h80v191c138-22 280 3 277 142" id="K"/><g id="d"><use transform="matrix(0.018,0,0,0.018,0,0)" xlink:href="#E"/><use transform="matrix(0.018,0,0,0.018,9.738,0)" xlink:href="#F"/><use transform="matrix(0.018,0,0,0.018,19.476,0)" xlink:href="#G"/><use transform="matrix(0.018,0,0,0.018,28.223999999999997,0)" xlink:href="#H"/><use transform="matrix(0.018,0,0,0.018,37.27799999999999,0)" xlink:href="#I"/><use transform="matrix(0.018,0,0,0.018,46.20599999999999,0)" xlink:href="#J"/><use transform="matrix(0.018,0,0,0.018,53.35199999999999,0)" xlink:href="#K"/></g><path fill="#444" d="M208-256L40-500h98c42 64 91 121 123 195 33-74 83-131 126-195h90L308-260 487 0h-95c-46-70-100-132-136-212-37 80-92 142-139 212H28" id="L"/><path fill="#444" d="M268 12C112 12 51-93 49-250c-1-158 69-262 219-262 156 0 217 105 219 262 1 158-69 262-219 262zm136-262c0-105-32-190-136-192-91-2-136 63-136 192 0 105 33 189 136 192 91 2 136-63 136-192" id="M"/><path fill="#444" d="M262 12c-51 0-69-5-105-20v208H77v-700h55l15 60h4c28-43 75-72 143-72 149 0 198 89 198 252 0 161-73 272-230 272zm147-273c-1-103-28-181-130-181-75 0-107 41-122 107v248c27 20 53 30 102 29 104-2 152-86 150-203" id="N"/><path fill="#444" d="M77 0v-500h80v430h171v-430h80v430h171v-430h80V0H77" id="O"/><g id="e"><use transform="matrix(0.018,0,0,0.018,0,0)" xlink:href="#L"/><use transform="matrix(0.018,0,0,0.018,9.144,0)" xlink:href="#M"/><use transform="matrix(0.018,0,0,0.018,18.792,0)" xlink:href="#N"/><use transform="matrix(0.018,0,0,0.018,28.53,0)" xlink:href="#M"/><use transform="matrix(0.018,0,0,0.018,38.178,0)" xlink:href="#O"/><use transform="matrix(0.018,0,0,0.018,51.425999999999995,0)" xlink:href="#M"/></g><path fill="#444" d="M504-321H168V0H85v-700h83v305h336v-305h83V0h-83v-321" id="P"/><path fill="#444" d="M240-221L93 0H1l158-229 34-30-51-38L12-500h85l138 216h52v-216h78v226l47-14 139-212h84L499-297l-39 32 51 40L659 0h-95L417-225h-52V0h-78v-235" id="Q"/><path fill="#444" d="M389 0c1-119-3-244 3-358h-3C308-231 211-120 123 0H77v-500h80c-1 121 3 248-3 364h4c81-128 177-242 264-364h47V0h-80" id="R"/><path fill="#444" d="M490 0c2-131-5-270 6-392h-5c-42 101-104 183-157 273h-28L180-315l-33-77h-4c14 119 6 261 8 392H77v-500h79c57 94 119 183 171 282 48-99 108-188 161-282h80V0h-78" id="S"/><path fill="#444" d="M389 0c1-119-3-244 3-358h-3C308-231 211-120 123 0H77v-500h80c-1 121 3 248-3 364h4c81-128 177-242 264-364h47V0h-80zm45-682c-4 132-227 159-290 56-10-15-17-32-20-52l68-24c10 53 38 82 91 82 51 0 82-31 91-81" id="T"/><path fill="#444" d="M113 7C77 18 49-5 49-43c0-32 25-54 57-54 93 0 79 148 34 195-20 21-44 41-73 51l-25-39c41-14 69-55 71-103" id="U"/><g id="f"><use transform="matrix(0.018,0,0,0.018,0,0)" xlink:href="#P"/><use transform="matrix(0.018,0,0,0.018,12.095999999999998,0)" xlink:href="#I"/><use transform="matrix(0.018,0,0,0.018,21.023999999999997,0)" xlink:href="#Q"/><use transform="matrix(0.018,0,0,0.018,32.885999999999996,0)" xlink:href="#R"/><use transform="matrix(0.018,0,0,0.018,42.714,0)" xlink:href="#S"/><use transform="matrix(0.018,0,0,0.018,54.324,0)" xlink:href="#I"/><use transform="matrix(0.018,0,0,0.018,63.251999999999995,0)" xlink:href="#T"/><use transform="matrix(0.018,0,0,0.018,73.08,0)" xlink:href="#J"/><use transform="matrix(0.018,0,0,0.018,79.93800000000002,0)" xlink:href="#G"/><use transform="matrix(0.018,0,0,0.018,89.08200000000001,0)" xlink:href="#U"/></g><path fill="#444" d="M281-58c46 1 86-17 111-36l26 61c-37 28-94 45-157 45C104 12 53-93 49-250c-5-188 108-294 299-254 22 5 42 12 60 21l-23 69c-29-16-66-28-111-28-95 0-142 64-142 192 0 110 39 189 149 192" id="V"/><g id="g"><use transform="matrix(0.018,0,0,0.018,0,0)" xlink:href="#G"/><use transform="matrix(0.018,0,0,0.018,8.946,0)" xlink:href="#V"/><use transform="matrix(0.018,0,0,0.018,16.613999999999997,0)" xlink:href="#H"/><use transform="matrix(0.018,0,0,0.018,25.667999999999996,0)" xlink:href="#R"/></g><g id="h"><use transform="matrix(0.018,0,0,0.018,0,0)" xlink:href="#L"/><use transform="matrix(0.018,0,0,0.018,9.144,0)" xlink:href="#M"/><use transform="matrix(0.018,0,0,0.018,18.503999999999998,0)" xlink:href="#J"/><use transform="matrix(0.018,0,0,0.018,25.65,0)" xlink:href="#R"/><use transform="matrix(0.018,0,0,0.018,35.477999999999994,0)" xlink:href="#J"/><use transform="matrix(0.018,0,0,0.018,42.336,0)" xlink:href="#G"/></g><path fill="#444" d="M200-90c53 9 88-53 47-80-80-53-213-55-211-192 2-102 65-152 171-152 67 0 135 17 175 39l-29 94c-31-11-84-29-129-29-54 0-78 51-41 74 81 50 213 53 211 187-2 110-75 163-194 163C133 14 65-7 25-31l36-97c31 17 89 40 139 38" id="W"/><path fill="#444" d="M278 14c-42 0-63-5-91-19v205H57v-700h95l15 60h4c33-47 73-74 148-74 142 0 188 93 188 251 0 164-68 277-229 277zm95-280c0-79-20-138-93-138-57 0-77 30-93 76v208c20 15 38 25 74 24 90-3 112-66 112-170" id="X"/><path fill="#444" d="M306-378c-38-49-172-17-221 4l-31-97c53-24 132-39 210-39 122 0 181 55 180 175-1 112-20 242 11 336H349l-21-69h-5c-28 41-74 78-147 76C81 5 23-45 23-138c0-142 140-164 291-160 5-37 4-65-8-80zM157-158c-3 37 24 59 62 59 49 0 79-27 96-55v-65c-71-4-153-3-158 61" id="Y"/><g id="i"><use transform="matrix(0.018,0,0,0.018,0,0)" xlink:href="#W"/><use transform="matrix(0.018,0,0,0.018,7.595999999999999,0)" xlink:href="#X"/><use transform="matrix(0.018,0,0,0.018,17.316,0)" xlink:href="#Y"/><use transform="matrix(0.018,0,0,0.018,26.244,0)" xlink:href="#p"/></g><g id="j"><use transform="matrix(0.018,0,0,0.018,0,0)" xlink:href="#s"/><use transform="matrix(0.018,0,0,0.018,4.824,0)" xlink:href="#u"/><use transform="matrix(0.018,0,0,0.018,14.508,0)" xlink:href="#A"/><use transform="matrix(0.018,0,0,0.018,23.598,0)" xlink:href="#B"/><use transform="matrix(0.018,0,0,0.018,29.628,0)" xlink:href="#u"/><use transform="matrix(0.018,0,0,0.018,39.312,0)" xlink:href="#v"/><use transform="matrix(0.018,0,0,0.018,48.455999999999996,0)" xlink:href="#w"/><use transform="matrix(0.018,0,0,0.018,56.034,0)" xlink:href="#x"/><use transform="matrix(0.018,0,0,0.018,63.9,0)" xlink:href="#B"/></g><g id="k"><use transform="matrix(0.018,0,0,0.018,0,0)" xlink:href="#q"/><use transform="matrix(0.018,0,0,0.018,8.927999999999999,0)" xlink:href="#r"/><use transform="matrix(0.018,0,0,0.018,15.047999999999998,0)" xlink:href="#s"/><use transform="matrix(0.018,0,0,0.018,19.872,0)" xlink:href="#q"/><use transform="matrix(0.018,0,0,0.018,28.799999999999997,0)" xlink:href="#t"/><use transform="matrix(0.018,0,0,0.018,35.279999999999994,0)" xlink:href="#u"/><use transform="matrix(0.018,0,0,0.018,44.96399999999999,0)" xlink:href="#v"/><use transform="matrix(0.018,0,0,0.018,54.10799999999999,0)" xlink:href="#w"/><use transform="matrix(0.018,0,0,0.018,61.68599999999999,0)" xlink:href="#x"/><use transform="matrix(0.018,0,0,0.018,69.80399999999999,0)" xlink:href="#r"/><use transform="matrix(0.018,0,0,0.018,75.92399999999999,0)" xlink:href="#s"/><use transform="matrix(0.018,0,0,0.018,80.74799999999999,0)" xlink:href="#y"/><use transform="matrix(0.018,0,0,0.018,90.46799999999999,0)" xlink:href="#v"/><use transform="matrix(0.018,0,0,0.018,99.612,0)" xlink:href="#u"/><use transform="matrix(0.018,0,0,0.018,109.29599999999999,0)" xlink:href="#y"/><use transform="matrix(0.018,0,0,0.018,118.8,0)" xlink:href="#z"/></g></defs></g></svg>