<svg xmlns="http://www.w3.org/2000/svg" xmlns:xlink="http://www.w3.org/1999/xlink" xmlns:lucid="lucid" width="320" height="234"><g transform="translate(-60 -60)" lucid:page-tab-id="1kBGm6J05jSn"><path d="M0 0h652.9v329.3H0z" fill="#fff"/><path d="M80 204c0-2.2 1.8-4 4-4h272c2.2 0 4 1.8 4 4v66c0 2.2-1.8 4-4 4H84c-2.2 0-4-1.8-4-4z" stroke="#3aa6dd" stroke-width="2" fill="#c1e4f7"/><path d="M80 237.17h280" stroke="#3aa6dd" stroke-width="2" fill="none"/><use xlink:href="#a" transform="matrix(1,0,0,1,88,208) translate(113.973 16.616)"/><use xlink:href="#b" transform="matrix(1,0,0,1,92,245.168) translate(0 16.616)"/><use xlink:href="#c" transform="matrix(1,0,0,1,92,245.168) translate(153.864 16.616)"/><path d="M80 84c0-2.2 1.8-4 4-4h272c2.2 0 4 1.8 4 4v72c0 2.2-1.8 4-4 4H84c-2.2 0-4-1.8-4-4z" stroke="#7ab648" stroke-width="2" fill="#c7e8ac"/><use xlink:href="#d" transform="matrix(1,0,0,1,88,88) translate(106.73777777777778 37.54666666666667)"/><path d="M220 162v18.5" stroke="#444" stroke-width="2" fill="none"/><path d="M221 162.03h-2V161h2z" fill="#444"/><path d="M220 195.76l-4.64-14.26h9.28z" stroke="#444" stroke-width="2" fill="#444"/><defs><path fill="#444" d="M200-90c53 9 88-53 47-80-80-53-213-55-211-192 2-102 65-152 171-152 67 0 135 17 175 39l-29 94c-31-11-84-29-129-29-54 0-78 51-41 74 81 50 213 53 211 187-2 110-75 163-194 163C133 14 65-7 25-31l36-97c31 17 89 40 139 38" id="e"/><path fill="#444" d="M278 14c-42 0-63-5-91-19v205H57v-700h95l15 60h4c33-47 73-74 148-74 142 0 188 93 188 251 0 164-68 277-229 277zm95-280c0-79-20-138-93-138-57 0-77 30-93 76v208c20 15 38 25 74 24 90-3 112-66 112-170" id="f"/><path fill="#444" d="M306-378c-38-49-172-17-221 4l-31-97c53-24 132-39 210-39 122 0 181 55 180 175-1 112-20 242 11 336H349l-21-69h-5c-28 41-74 78-147 76C81 5 23-45 23-138c0-142 140-164 291-160 5-37 4-65-8-80zM157-158c-3 37 24 59 62 59 49 0 79-27 96-55v-65c-71-4-153-3-158 61" id="g"/><path fill="#444" d="M338-514c121 0 155 79 155 203V0H363v-284c-1-72-12-113-77-115-52-1-86 36-99 75V0H57v-500h103l15 66h4c32-43 81-80 159-80" id="h"/><g id="a"><use transform="matrix(0.018,0,0,0.018,0,0)" xlink:href="#e"/><use transform="matrix(0.018,0,0,0.018,7.595999999999999,0)" xlink:href="#f"/><use transform="matrix(0.018,0,0,0.018,17.316,0)" xlink:href="#g"/><use transform="matrix(0.018,0,0,0.018,26.244,0)" xlink:href="#h"/></g><path fill="#444" d="M422-354c0 120-19 253 8 356h-59l-21-70h-5C315-22 265 8 189 8 98 8 39-43 39-134c0-147 152-157 302-151 10-93 1-159-99-153-57 4-110 14-148 35l-25-60c48-30 118-45 194-45 108-1 159 51 159 154zM122-142c-2 47 40 81 89 80 67-1 109-32 130-79v-83c-95-3-214-10-219 82" id="i"/><path fill="#444" d="M152-439c26-60 97-88 178-61l-17 77c-74-29-156 5-156 73V0H77v-500h56l15 61h4" id="j"/><path fill="#444" d="M94-500h80V0H94v-500zm38-99c-31 0-55-23-55-53s24-56 55-56 58 26 58 56-28 53-58 53" id="k"/><path fill="#444" d="M59-325h242v74H59v-74" id="l"/><path fill="#444" d="M189 12C123 10 86-25 86-100v-600h80v577c-10 72 59 74 108 54l9 63c-18 10-66 18-94 18" id="m"/><path fill="#444" d="M247 9C183 10 114-8 77-29v-671h80v249h4c28-36 76-61 136-61 144 0 194 97 194 254C491-91 407 8 247 9zm161-268c-2-100-27-183-125-183-74 0-109 46-126 107v252c24 14 63 22 102 22 105 0 151-78 149-198" id="n"/><path fill="#444" d="M293-58c43 0 98-19 119-40l30 58C404-9 338 12 270 12 112 10 51-92 49-250c-1-159 70-258 220-262 155-4 211 110 184 270H132c0 116 45 184 161 184zm88-247c1-92-30-137-111-137-89 0-129 46-137 137h248" id="o"/><path fill="#444" d="M40-457h424v72H40v-72zm0 166h424v72H40v-72" id="p"/><path fill="#444" d="M207-700h78l-31 193h-47v-193zm-117 0h78l-31 193H90v-193" id="q"/><path fill="#444" d="M378-62c56 2 101-12 135-32l20 65C494 2 428 12 359 12 150 12 58-132 56-350c-2-250 141-394 402-356 25 4 47 11 65 18l-20 73c-32-15-78-23-137-23-158 0-222 119-222 288S215-68 378-62" id="r"/><path fill="#444" d="M64-70c60-104 75-258 80-430h302v430h73v197h-54L450 0H74L59 127H5V-70h59zm152-360c-8 132-25 268-72 360h222v-360H216" id="s"/><path fill="#444" d="M293-58c43 0 98-19 119-40l30 58C404-9 338 12 270 12 112 10 51-92 49-250c-1-159 70-258 220-262 155-4 211 110 184 270H132c0 116 45 184 161 184zm88-247c1-92-30-137-111-137-89 0-129 46-137 137h248" id="t"/><path fill="#444" d="M346-430H201c-12 154-13 330-95 414C82 10 30 8-5-5L7-72c59 14 77-23 90-78 23-100 27-207 31-350h298V0h-80v-430" id="u"/><path fill="#444" d="M422-354c0 120-19 253 8 356h-59l-21-70h-5C315-22 265 8 189 8 98 8 39-43 39-134c0-147 152-157 302-151 10-93 1-159-99-153-57 4-110 14-148 35l-25-60c48-30 118-45 194-45 108-1 159 51 159 154zM122-142c-2 47 40 81 89 80 67-1 109-32 130-79v-83c-95-3-214-10-219 82" id="v"/><path fill="#444" d="M395-430H239V0h-80v-430H3v-70h392v70" id="w"/><path fill="#444" d="M351-158c0-89-105-105-194-85v173c92 16 194 5 194-88zm83-9C431-34 352 5 210 6c-43 0-87-2-133-6v-500h80v191c138-22 280 3 277 142" id="x"/><g id="b"><use transform="matrix(0.018,0,0,0.018,0,0)" xlink:href="#i"/><use transform="matrix(0.018,0,0,0.018,8.927999999999999,0)" xlink:href="#j"/><use transform="matrix(0.018,0,0,0.018,15.047999999999998,0)" xlink:href="#k"/><use transform="matrix(0.018,0,0,0.018,19.872,0)" xlink:href="#i"/><use transform="matrix(0.018,0,0,0.018,28.799999999999997,0)" xlink:href="#l"/><use transform="matrix(0.018,0,0,0.018,35.279999999999994,0)" xlink:href="#m"/><use transform="matrix(0.018,0,0,0.018,40.535999999999994,0)" xlink:href="#i"/><use transform="matrix(0.018,0,0,0.018,49.46399999999999,0)" xlink:href="#n"/><use transform="matrix(0.018,0,0,0.018,59.18399999999999,0)" xlink:href="#o"/><use transform="matrix(0.018,0,0,0.018,68.32799999999999,0)" xlink:href="#m"/><use transform="matrix(0.018,0,0,0.018,73.58399999999999,0)" xlink:href="#p"/><use transform="matrix(0.018,0,0,0.018,82.67399999999999,0)" xlink:href="#q"/><use transform="matrix(0.018,0,0,0.018,87.984,0)" xlink:href="#r"/><use transform="matrix(0.018,0,0,0.018,97.72199999999998,0)" xlink:href="#s"/><use transform="matrix(0.018,0,0,0.018,107.45999999999998,0)" xlink:href="#t"/><use transform="matrix(0.018,0,0,0.018,116.20799999999998,0)" xlink:href="#u"/><use transform="matrix(0.018,0,0,0.018,125.26199999999999,0)" xlink:href="#v"/><use transform="matrix(0.018,0,0,0.018,134.19,0)" xlink:href="#w"/><use transform="matrix(0.018,0,0,0.018,141.33599999999998,0)" xlink:href="#x"/></g><path fill="#444" d="M208-256L40-500h98c42 64 91 121 123 195 33-74 83-131 126-195h90L308-260 487 0h-95c-46-70-100-132-136-212-37 80-92 142-139 212H28" id="y"/><path fill="#444" d="M268 12C112 12 51-93 49-250c-1-158 69-262 219-262 156 0 217 105 219 262 1 158-69 262-219 262zm136-262c0-105-32-190-136-192-91-2-136 63-136 192 0 105 33 189 136 192 91 2 136-63 136-192" id="z"/><path fill="#444" d="M262 12c-51 0-69-5-105-20v208H77v-700h55l15 60h4c28-43 75-72 143-72 149 0 198 89 198 252 0 161-73 272-230 272zm147-273c-1-103-28-181-130-181-75 0-107 41-122 107v248c27 20 53 30 102 29 104-2 152-86 150-203" id="A"/><path fill="#444" d="M77 0v-500h80v430h171v-430h80v430h171v-430h80V0H77" id="B"/><g id="c"><use transform="matrix(0.018,0,0,0.018,0,0)" xlink:href="#y"/><use transform="matrix(0.018,0,0,0.018,9.144,0)" xlink:href="#z"/><use transform="matrix(0.018,0,0,0.018,18.792,0)" xlink:href="#A"/><use transform="matrix(0.018,0,0,0.018,28.53,0)" xlink:href="#z"/><use transform="matrix(0.018,0,0,0.018,38.178,0)" xlink:href="#B"/><use transform="matrix(0.018,0,0,0.018,51.425999999999995,0)" xlink:href="#z"/><use transform="matrix(0.018,0,0,0.018,60.11999999999999,0)" xlink:href="#q"/></g><path fill="#444" d="M254 12C182 13 102-2 57-22v-678h130v240h4c26-30 72-53 127-52 135 3 185 99 185 249 0 170-87 274-249 275zm7-110c84 0 108-64 108-161 0-95-30-143-89-143-53 1-78 30-93 72v218c20 10 44 14 74 14" id="C"/><path fill="#444" d="M211 14C88 14 52-63 52-189v-311h130v284c2 72 6 113 71 115 52 1 83-37 98-76v-323h130c6 167-14 358 16 500h-98l-23-74h-4c-29 48-84 88-161 88" id="D"/><path fill="#444" d="M208 14C110 12 74-35 74-138v-252H5v-110h69v-94l130-37v131h122v110H204v192c2 58 2 97 50 97 30 0 44-6 67-16l23 100c-34 16-86 31-136 31" id="E"/><path fill="#444" d="M269 14C107 14 36-88 33-250c-2-161 81-264 236-264 162 0 233 102 235 264 2 161-80 264-235 264zm0-418c-78 0-104 61-102 154 1 82 21 154 102 154 80 0 101-62 101-154 0-83-21-154-101-154" id="F"/><g id="d"><use transform="matrix(0.017777777777777778,0,0,0.017777777777777778,0,0)" xlink:href="#C"/><use transform="matrix(0.017777777777777778,0,0,0.017777777777777778,9.528888888888888,0)" xlink:href="#D"/><use transform="matrix(0.017777777777777778,0,0,0.017777777777777778,19.093333333333334,0)" xlink:href="#E"/><use transform="matrix(0.017777777777777778,0,0,0.017777777777777778,25.173333333333332,0)" xlink:href="#E"/><use transform="matrix(0.017777777777777778,0,0,0.017777777777777778,31.288888888888888,0)" xlink:href="#F"/><use transform="matrix(0.017777777777777778,0,0,0.017777777777777778,40.83555555555556,0)" xlink:href="#h"/></g></defs></g></svg>