<svg xmlns="http://www.w3.org/2000/svg" xmlns:xlink="http://www.w3.org/1999/xlink" xmlns:lucid="lucid" width="280" height="336.79"><g transform="translate(-60 -62.205253338281324)" lucid:page-tab-id="rd3C~6_6zY4z"><path d="M0 0h416.05v478.1H0z" fill="#fff"/><path d="M80 164c0-2.2 1.8-4 4-4h232c2.2 0 4 1.8 4 4v93c0 2.2-1.8 4-4 4H84c-2.2 0-4-1.8-4-4z" stroke="#7ab648" stroke-width="2" fill="#c7e8ac"/><path d="M80 197.17h240" stroke="#7ab648" stroke-width="2" fill="none"/><use xlink:href="#a" transform="matrix(1,0,0,1,88,168) translate(86.422 16.616)"/><use xlink:href="#b" transform="matrix(1,0,0,1,92,205.168) translate(0 19.032)"/><use xlink:href="#c" transform="matrix(1,0,0,1,92,205.168) translate(0 40.2)"/><path d="M80 304c0-2.2 1.8-4 4-4h232c2.2 0 4 1.8 4 4v71c0 2.2-1.8 4-4 4H84c-2.2 0-4-1.8-4-4z" stroke="#ef8d22" stroke-width="2" fill="#ffdba9"/><path d="M80 337.17h240" stroke="#ef8d22" stroke-width="2" fill="none"/><use xlink:href="#d" transform="matrix(1,0,0,1,88,308) translate(96.655 16.616)"/><use xlink:href="#e" transform="matrix(1,0,0,1,92,345.168) translate(0 19.116)"/><use xlink:href="#f" transform="matrix(1,0,0,1,92,345.168) translate(65.87999999999998 19.116)"/><path d="M200 263v17.5" stroke="#444" stroke-width="2" fill="none"/><path d="M201 263.03h-2V262h2z" fill="#444"/><path d="M200 295.76l-4.64-14.26h9.28z" stroke="#444" stroke-width="2" fill="#444"/><path d="M240.16 158l-.18-6.06-.58-6.26-.87-5.57-1.1-4.96-1.25-4.44-1.4-3.98-1.52-3.56-1.6-3.2-1.67-2.9-1.73-2.57-1.76-2.33-1.78-2.08-1.82-1.88-1.83-1.66-1.85-1.48-1.86-1.3-1.86-1.14-1.87-1-1.87-.85-1.87-.73-1.88-.58-1.88-.47-1.87-.34-1.88-.24-1.88-.1h-1.88l-1.87.14-1.88.24-1.88.36-1.88.5-1.87.6-1.87.74-1.87.88-1.87 1.02-1.86 1.18-1.86 1.33-1.84 1.5-1.83 1.7-1.8 1.9-1.8 2.14-1.75 2.36-1.72 2.64-1.65 2.94-1.6 3.27-1.48 3.65-1.4 4.06-1.22 4.55-.94 4.54" stroke="#444" stroke-width="2" fill="none"/><path d="M241.2 159h-2l-.04-1 2-.06z" fill="#444"/><path d="M159.6 155.78l-3.4-14.6 9.24.78z" stroke="#444" stroke-width="2" fill="#444"/><g><use xlink:href="#g" transform="matrix(1,0,0,1,141.96640226230693,73.20525333828132) translate(0 16.2)"/></g><defs><path fill="#444" d="M254 12C182 13 102-2 57-22v-678h130v240h4c26-30 72-53 127-52 135 3 185 99 185 249 0 170-87 274-249 275zm7-110c84 0 108-64 108-161 0-95-30-143-89-143-53 1-78 30-93 72v218c20 10 44 14 74 14" id="h"/><path fill="#444" d="M211 14C88 14 52-63 52-189v-311h130v284c2 72 6 113 71 115 52 1 83-37 98-76v-323h130c6 167-14 358 16 500h-98l-23-74h-4c-29 48-84 88-161 88" id="i"/><path fill="#444" d="M208 14C110 12 74-35 74-138v-252H5v-110h69v-94l130-37v131h122v110H204v192c2 58 2 97 50 97 30 0 44-6 67-16l23 100c-34 16-86 31-136 31" id="j"/><path fill="#444" d="M269 14C107 14 36-88 33-250c-2-161 81-264 236-264 162 0 233 102 235 264 2 161-80 264-235 264zm0-418c-78 0-104 61-102 154 1 82 21 154 102 154 80 0 101-62 101-154 0-83-21-154-101-154" id="k"/><path fill="#444" d="M338-514c121 0 155 79 155 203V0H363v-284c-1-72-12-113-77-115-52-1-86 36-99 75V0H57v-500h103l15 66h4c32-43 81-80 159-80" id="l"/><g id="a"><use transform="matrix(0.018,0,0,0.018,0,0)" xlink:href="#h"/><use transform="matrix(0.018,0,0,0.018,9.648,0)" xlink:href="#i"/><use transform="matrix(0.018,0,0,0.018,19.332000000000004,0)" xlink:href="#j"/><use transform="matrix(0.018,0,0,0.018,25.488,0)" xlink:href="#j"/><use transform="matrix(0.018,0,0,0.018,31.680000000000003,0)" xlink:href="#k"/><use transform="matrix(0.018,0,0,0.018,41.346,0)" xlink:href="#l"/></g><path fill="#444" d="M94-500h80V0H94v-500zm38-99c-31 0-55-23-55-53s24-56 55-56 58 26 58 56-28 53-58 53" id="m"/><path fill="#444" d="M276-509c50 0 69 4 105 17v-208h80v528c1 67-1 118 10 174h-54l-20-71h-4c-25 44-78 82-147 81C97 8 50-86 49-248c-1-159 77-260 227-261zM132-248c1 104 26 190 127 190 75 0 108-41 122-107v-248c-27-20-53-26-102-26-105 0-148 72-147 191" id="n"/><path fill="#444" d="M40-457h424v72H40v-72zm0 166h424v72H40v-72" id="o"/><path fill="#444" d="M207-700h78l-31 193h-47v-193zm-117 0h78l-31 193H90v-193" id="p"/><path fill="#444" d="M247 9C183 10 114-8 77-29v-671h80v249h4c28-36 76-61 136-61 144 0 194 97 194 254C491-91 407 8 247 9zm161-268c-2-100-27-183-125-183-74 0-109 46-126 107v252c24 14 63 22 102 22 105 0 151-78 149-198" id="q"/><path fill="#444" d="M232 12C103 12 68-68 69-198v-302h80v285c0 87 12 158 98 157 78-1 111-51 135-108v-334h80c4 166-10 350 11 500h-55l-20-79h-5c-31 50-80 91-161 91" id="r"/><path fill="#444" d="M200 12C109 10 89-39 89-138v-292H11v-70h78v-99l80-23v122h136v70H169v277c1 59 6 93 57 95 38 1 55-9 84-20l18 61c-35 17-77 30-128 29" id="s"/><path fill="#444" d="M268 12C112 12 51-93 49-250c-1-158 69-262 219-262 156 0 217 105 219 262 1 158-69 262-219 262zm136-262c0-105-32-190-136-192-91-2-136 63-136 192 0 105 33 189 136 192 91 2 136-63 136-192" id="t"/><path fill="#444" d="M313-512c130 0 165 79 165 210V0h-80v-285c-2-94-16-155-105-157-72-1-118 46-136 100V0H77v-500h56l15 61h4c32-42 86-73 161-73" id="u"/><g id="b"><use transform="matrix(0.018,0,0,0.018,0,0)" xlink:href="#m"/><use transform="matrix(0.018,0,0,0.018,4.824,0)" xlink:href="#n"/><use transform="matrix(0.018,0,0,0.018,14.508,0)" xlink:href="#o"/><use transform="matrix(0.018,0,0,0.018,23.598,0)" xlink:href="#p"/><use transform="matrix(0.018,0,0,0.018,29.628,0)" xlink:href="#q"/><use transform="matrix(0.018,0,0,0.018,39.348,0)" xlink:href="#r"/><use transform="matrix(0.018,0,0,0.018,49.05,0)" xlink:href="#s"/><use transform="matrix(0.018,0,0,0.018,55.151999999999994,0)" xlink:href="#s"/><use transform="matrix(0.018,0,0,0.018,61.05599999999999,0)" xlink:href="#t"/><use transform="matrix(0.018,0,0,0.018,70.704,0)" xlink:href="#u"/><use transform="matrix(0.018,0,0,0.018,80.55,0)" xlink:href="#p"/></g><path fill="#444" d="M422-354c0 120-19 253 8 356h-59l-21-70h-5C315-22 265 8 189 8 98 8 39-43 39-134c0-147 152-157 302-151 10-93 1-159-99-153-57 4-110 14-148 35l-25-60c48-30 118-45 194-45 108-1 159 51 159 154zM122-142c-2 47 40 81 89 80 67-1 109-32 130-79v-83c-95-3-214-10-219 82" id="v"/><path fill="#444" d="M152-439c26-60 97-88 178-61l-17 77c-74-29-156 5-156 73V0H77v-500h56l15 61h4" id="w"/><path fill="#444" d="M59-325h242v74H59v-74" id="x"/><path fill="#444" d="M189 12C123 10 86-25 86-100v-600h80v577c-10 72 59 74 108 54l9 63c-18 10-66 18-94 18" id="y"/><path fill="#444" d="M293-58c43 0 98-19 119-40l30 58C404-9 338 12 270 12 112 10 51-92 49-250c-1-159 70-258 220-262 155-4 211 110 184 270H132c0 116 45 184 161 184zm88-247c1-92-30-137-111-137-89 0-129 46-137 137h248" id="z"/><path fill="#444" d="M104-500c49 140 107 271 148 420h5c31-148 79-280 119-420h81C396-319 339-134 276 44c-20 55-46 106-82 140-28 26-82 25-117 11l14-69c34 12 54 2 79-24 17-20 32-54 43-102L12-500h92" id="A"/><g id="c"><use transform="matrix(0.018,0,0,0.018,0,0)" xlink:href="#v"/><use transform="matrix(0.018,0,0,0.018,8.927999999999999,0)" xlink:href="#w"/><use transform="matrix(0.018,0,0,0.018,15.047999999999998,0)" xlink:href="#m"/><use transform="matrix(0.018,0,0,0.018,19.872,0)" xlink:href="#v"/><use transform="matrix(0.018,0,0,0.018,28.799999999999997,0)" xlink:href="#x"/><use transform="matrix(0.018,0,0,0.018,35.279999999999994,0)" xlink:href="#y"/><use transform="matrix(0.018,0,0,0.018,40.535999999999994,0)" xlink:href="#v"/><use transform="matrix(0.018,0,0,0.018,49.46399999999999,0)" xlink:href="#q"/><use transform="matrix(0.018,0,0,0.018,59.18399999999999,0)" xlink:href="#z"/><use transform="matrix(0.018,0,0,0.018,68.32799999999999,0)" xlink:href="#y"/><use transform="matrix(0.018,0,0,0.018,73.58399999999999,0)" xlink:href="#y"/><use transform="matrix(0.018,0,0,0.018,78.83999999999999,0)" xlink:href="#z"/><use transform="matrix(0.018,0,0,0.018,87.984,0)" xlink:href="#n"/><use transform="matrix(0.018,0,0,0.018,97.66799999999999,0)" xlink:href="#q"/><use transform="matrix(0.018,0,0,0.018,107.172,0)" xlink:href="#A"/><use transform="matrix(0.018,0,0,0.018,115.56,0)" xlink:href="#o"/><use transform="matrix(0.018,0,0,0.018,124.65,0)" xlink:href="#p"/><use transform="matrix(0.018,0,0,0.018,130.68,0)" xlink:href="#q"/><use transform="matrix(0.018,0,0,0.018,140.4,0)" xlink:href="#r"/><use transform="matrix(0.018,0,0,0.018,150.10199999999998,0)" xlink:href="#s"/><use transform="matrix(0.018,0,0,0.018,156.204,0)" xlink:href="#s"/><use transform="matrix(0.018,0,0,0.018,162.10799999999998,0)" xlink:href="#t"/><use transform="matrix(0.018,0,0,0.018,171.756,0)" xlink:href="#u"/><use transform="matrix(0.018,0,0,0.018,181.60200000000003,0)" xlink:href="#p"/></g><path fill="#444" d="M291-90c49 0 97-19 123-38l43 85c-40 32-117 57-191 57C103 14 34-89 33-250c-2-167 81-264 240-264 129 0 199 68 200 202 0 33-4 65-10 95H163c5 84 39 127 128 127zm61-208c5-67-19-112-81-112-71-1-98 47-105 112h186" id="B"/><path fill="#444" d="M170-256L20-500h155c34 56 71 109 93 177 24-68 63-121 98-177h141L356-260 517 0H366c-38-62-83-118-107-194-26 75-70 132-109 194H8" id="C"/><g id="d"><use transform="matrix(0.018,0,0,0.018,0,0)" xlink:href="#j"/><use transform="matrix(0.018,0,0,0.018,6.191999999999999,0)" xlink:href="#B"/><use transform="matrix(0.018,0,0,0.018,14.957999999999998,0)" xlink:href="#C"/><use transform="matrix(0.018,0,0,0.018,24.407999999999998,0)" xlink:href="#j"/></g><path fill="#444" d="M378-62c56 2 101-12 135-32l20 65C494 2 428 12 359 12 150 12 58-132 56-350c-2-250 141-394 402-356 25 4 47 11 65 18l-20 73c-32-15-78-23-137-23-158 0-222 119-222 288S215-68 378-62" id="D"/><path fill="#444" d="M64-70c60-104 75-258 80-430h302v430h73v197h-54L450 0H74L59 127H5V-70h59zm152-360c-8 132-25 268-72 360h222v-360H216" id="E"/><path fill="#444" d="M293-58c43 0 98-19 119-40l30 58C404-9 338 12 270 12 112 10 51-92 49-250c-1-159 70-258 220-262 155-4 211 110 184 270H132c0 116 45 184 161 184zm88-247c1-92-30-137-111-137-89 0-129 46-137 137h248" id="F"/><path fill="#444" d="M346-430H201c-12 154-13 330-95 414C82 10 30 8-5-5L7-72c59 14 77-23 90-78 23-100 27-207 31-350h298V0h-80v-430" id="G"/><path fill="#444" d="M422-354c0 120-19 253 8 356h-59l-21-70h-5C315-22 265 8 189 8 98 8 39-43 39-134c0-147 152-157 302-151 10-93 1-159-99-153-57 4-110 14-148 35l-25-60c48-30 118-45 194-45 108-1 159 51 159 154zM122-142c-2 47 40 81 89 80 67-1 109-32 130-79v-83c-95-3-214-10-219 82" id="H"/><path fill="#444" d="M395-430H239V0h-80v-430H3v-70h392v70" id="I"/><path fill="#444" d="M351-158c0-89-105-105-194-85v173c92 16 194 5 194-88zm83-9C431-34 352 5 210 6c-43 0-87-2-133-6v-500h80v191c138-22 280 3 277 142" id="J"/><g id="e"><use transform="matrix(0.018,0,0,0.018,0,0)" xlink:href="#D"/><use transform="matrix(0.018,0,0,0.018,9.738,0)" xlink:href="#E"/><use transform="matrix(0.018,0,0,0.018,19.476,0)" xlink:href="#F"/><use transform="matrix(0.018,0,0,0.018,28.223999999999997,0)" xlink:href="#G"/><use transform="matrix(0.018,0,0,0.018,37.27799999999999,0)" xlink:href="#H"/><use transform="matrix(0.018,0,0,0.018,46.20599999999999,0)" xlink:href="#I"/><use transform="matrix(0.018,0,0,0.018,53.35199999999999,0)" xlink:href="#J"/></g><path fill="#444" d="M208-256L40-500h98c42 64 91 121 123 195 33-74 83-131 126-195h90L308-260 487 0h-95c-46-70-100-132-136-212-37 80-92 142-139 212H28" id="K"/><path fill="#444" d="M268 12C112 12 51-93 49-250c-1-158 69-262 219-262 156 0 217 105 219 262 1 158-69 262-219 262zm136-262c0-105-32-190-136-192-91-2-136 63-136 192 0 105 33 189 136 192 91 2 136-63 136-192" id="L"/><path fill="#444" d="M262 12c-51 0-69-5-105-20v208H77v-700h55l15 60h4c28-43 75-72 143-72 149 0 198 89 198 252 0 161-73 272-230 272zm147-273c-1-103-28-181-130-181-75 0-107 41-122 107v248c27 20 53 30 102 29 104-2 152-86 150-203" id="M"/><path fill="#444" d="M77 0v-500h80v430h171v-430h80v430h171v-430h80V0H77" id="N"/><g id="f"><use transform="matrix(0.018,0,0,0.018,0,0)" xlink:href="#K"/><use transform="matrix(0.018,0,0,0.018,9.144,0)" xlink:href="#L"/><use transform="matrix(0.018,0,0,0.018,18.792,0)" xlink:href="#M"/><use transform="matrix(0.018,0,0,0.018,28.53,0)" xlink:href="#L"/><use transform="matrix(0.018,0,0,0.018,38.178,0)" xlink:href="#N"/><use transform="matrix(0.018,0,0,0.018,51.425999999999995,0)" xlink:href="#L"/></g><g id="g"><use transform="matrix(0.018,0,0,0.018,0,0)" xlink:href="#v"/><use transform="matrix(0.018,0,0,0.018,8.927999999999999,0)" xlink:href="#w"/><use transform="matrix(0.018,0,0,0.018,15.047999999999998,0)" xlink:href="#m"/><use transform="matrix(0.018,0,0,0.018,19.872,0)" xlink:href="#v"/><use transform="matrix(0.018,0,0,0.018,28.799999999999997,0)" xlink:href="#x"/><use transform="matrix(0.018,0,0,0.018,35.279999999999994,0)" xlink:href="#y"/><use transform="matrix(0.018,0,0,0.018,40.535999999999994,0)" xlink:href="#v"/><use transform="matrix(0.018,0,0,0.018,49.46399999999999,0)" xlink:href="#q"/><use transform="matrix(0.018,0,0,0.018,59.18399999999999,0)" xlink:href="#z"/><use transform="matrix(0.018,0,0,0.018,68.32799999999999,0)" xlink:href="#y"/><use transform="matrix(0.018,0,0,0.018,73.58399999999999,0)" xlink:href="#y"/><use transform="matrix(0.018,0,0,0.018,78.83999999999999,0)" xlink:href="#z"/><use transform="matrix(0.018,0,0,0.018,87.984,0)" xlink:href="#n"/><use transform="matrix(0.018,0,0,0.018,97.66799999999999,0)" xlink:href="#q"/><use transform="matrix(0.018,0,0,0.018,107.172,0)" xlink:href="#A"/></g></defs></g></svg>