<svg xmlns="http://www.w3.org/2000/svg" xmlns:xlink="http://www.w3.org/1999/xlink" xmlns:lucid="lucid" width="1080" height="443.84"><g transform="translate(-100 -55.15508192685472)" lucid:page-tab-id="uH5EwC9wM5_x"><path d="M0 0h1365.8v719.04H0z" fill="#fff"/><path d="M120 165.24c0-2.2 1.8-4 4-4h832c2.2 0 4 1.8 4 4v71c0 2.2-1.8 4-4 4H124c-2.2 0-4-1.8-4-4z" stroke="#7ab648" stroke-width="2" fill="#c7e8ac"/><use xlink:href="#a" transform="matrix(1,0,0,1,128,169.2445105785236) translate(386.73777777777775 37.04666666666667)"/><path d="M320 404c0-2.2 1.8-4 4-4h152c2.2 0 4 1.8 4 4v71c0 2.2-1.8 4-4 4H324c-2.2 0-4-1.8-4-4z" stroke="#ef8d22" stroke-width="2" fill="#ffdba9"/><path d="M320 437.17h160" stroke="#ef8d22" stroke-width="2" fill="none"/><use xlink:href="#b" transform="matrix(1,0,0,1,328,407.99999999999994) translate(56.655 16.616)"/><use xlink:href="#c" transform="matrix(1,0,0,1,332,445.16799999999995) translate(0 19.116)"/><path d="M520 284c0-2.2 1.8-4 4-4h192c2.2 0 4 1.8 4 4v71c0 2.2-1.8 4-4 4H524c-2.2 0-4-1.8-4-4z" stroke="#3aa6dd" stroke-width="2" fill="#c1e4f7"/><path d="M520 317.17h200" stroke="#3aa6dd" stroke-width="2" fill="none"/><use xlink:href="#d" transform="matrix(1,0,0,1,528,288) translate(73.973 16.616)"/><use xlink:href="#e" transform="matrix(1,0,0,1,532,325.168) translate(0 19.116)"/><use xlink:href="#f" transform="matrix(1,0,0,1,532,325.168) translate(114.75 19.116)"/><path d="M760 284c0-2.2 1.8-4 4-4h192c2.2 0 4 1.8 4 4v71c0 2.2-1.8 4-4 4H764c-2.2 0-4-1.8-4-4z" stroke="#3aa6dd" stroke-width="2" fill="#c1e4f7"/><path d="M760 317.17h200" stroke="#3aa6dd" stroke-width="2" fill="none"/><use xlink:href="#d" transform="matrix(1,0,0,1,768,288) translate(73.973 16.616)"/><use xlink:href="#g" transform="matrix(1,0,0,1,772,325.168) translate(0 19.116)"/><path d="M1000 164c0-2.2 1.8-4 4-4h152c2.2 0 4 1.8 4 4v71c0 2.2-1.8 4-4 4h-152c-2.2 0-4-1.8-4-4z" stroke="#3aa6dd" stroke-width="2" fill="#c1e4f7"/><path d="M1000 197.17h160" stroke="#3aa6dd" stroke-width="2" fill="none"/><use xlink:href="#d" transform="matrix(1,0,0,1,1008,168) translate(53.973 16.616)"/><use xlink:href="#h" transform="matrix(1,0,0,1,1012,205.168) translate(0 19.116)"/><path d="M1000 284c0-2.2 1.8-4 4-4h152c2.2 0 4 1.8 4 4v71c0 2.2-1.8 4-4 4h-152c-2.2 0-4-1.8-4-4z" stroke="#ef8d22" stroke-width="2" fill="#ffdba9"/><path d="M1000 317.17h160" stroke="#ef8d22" stroke-width="2" fill="none"/><use xlink:href="#b" transform="matrix(1,0,0,1,1008,288) translate(56.655 16.616)"/><use xlink:href="#i" transform="matrix(1,0,0,1,1012,325.168) translate(0 19.116)"/><path d="M400 361v19.5" stroke="#444" stroke-width="2" fill="none"/><path d="M401 361.03h-2V360h2z" fill="#444"/><path d="M400 395.76l-4.64-14.26h9.28z" stroke="#444" stroke-width="2" fill="#444"/><path d="M909.5 278l1.6-21.05 2.25-19.03 2.67-16.53 2.95-14.45 3.15-12.67 3.28-11.18 3.36-9.88 3.4-8.8 3.4-7.82 3.43-7 3.38-6.3 3.36-5.64 3.33-5.1 3.3-4.6 3.23-4.14 3.2-3.77 3.15-3.4 3.1-3.1 3.07-2.8 3.03-2.54 2.98-2.3 2.95-2.07 2.9-1.88 2.88-1.68 2.85-1.52 2.83-1.35 2.78-1.2 2.78-1.05 2.74-.9 2.7-.8 2.7-.64 2.7-.52 2.65-.42 2.64-.3 2.63-.18 2.6-.07 2.6.04 2.58.15 2.57.24 2.53.35 2.52.45 2.5.57 2.47.67 2.44.77 2.42.88 2.4.98 2.35 1.1 2.32 1.18 2.28 1.3 2.23 1.4 2.18 1.48 2.14 1.6 2.06 1.68 2 1.78 1.95 1.87 1.87 1.97 1.8 2.05 1.7 2.14 1.65 2.22 1.55 2.3 1.46 2.37 1.37 2.45 1.27 2.52 1.18 2.6 1.08 2.65.97 2.73.87 2.8.55 2.1" stroke="#444" stroke-width="2" fill="none"/><path d="M910.5 278.05l-.08.95h-2l.08-1.1z" fill="#444"/><path d="M1079.14 155.8l-6.35-13.6 9.2-1.14z" stroke="#444" stroke-width="2" fill="#444"/><use xlink:href="#j" transform="matrix(1,0,0,1,957.9074046556191,66.15508192685472) translate(0 16.2)"/><path d="M1080 241v19.5" stroke="#444" stroke-width="2" fill="none"/><path d="M1081 241.03h-2V240h2z" fill="#444"/><path d="M1080 275.76l-4.64-14.26h9.28z" stroke="#444" stroke-width="2" fill="#444"/><path d="M120 284c0-2.2 1.8-4 4-4h152c2.2 0 4 1.8 4 4v71c0 2.2-1.8 4-4 4H124c-2.2 0-4-1.8-4-4z" stroke="#ef8d22" stroke-width="2" fill="#ffdba9"/><path d="M120 317.17h160" stroke="#ef8d22" stroke-width="2" fill="none"/><use xlink:href="#b" transform="matrix(1,0,0,1,128,288) translate(56.655 16.616)"/><use xlink:href="#k" transform="matrix(1,0,0,1,132,325.168) translate(0 19.116)"/><path d="M199.85 242.25v18.25" stroke="#444" stroke-width="2" fill="none"/><path d="M200.85 242.27h-2v-1.03h2z" fill="#444"/><path d="M199.85 275.76l-4.63-14.26h9.27z" stroke="#444" stroke-width="2" fill="#444"/><path d="M400 242.25v18.25" stroke="#444" stroke-width="2" fill="none"/><path d="M401 242.27h-2v-1.03h2z" fill="#444"/><path d="M400 275.76l-4.63-14.26h9.27z" stroke="#444" stroke-width="2" fill="#444"/><path d="M619.64 242.25v18.25" stroke="#444" stroke-width="2" fill="none"/><path d="M620.64 242.27h-2v-1.03h2z" fill="#444"/><path d="M619.64 275.76L615 261.5h9.28z" stroke="#444" stroke-width="2" fill="#444"/><path d="M859.95 242.25v18.25" stroke="#444" stroke-width="2" fill="none"/><path d="M860.95 242.27h-2v-1.03h2z" fill="#444"/><path d="M859.95 275.76l-4.63-14.26h9.27z" stroke="#444" stroke-width="2" fill="#444"/><path d="M320 284c0-2.2 1.8-4 4-4h152c2.2 0 4 1.8 4 4v71c0 2.2-1.8 4-4 4H324c-2.2 0-4-1.8-4-4z" stroke="#3aa6dd" stroke-width="2" fill="#c1e4f7"/><use xlink:href="#l" transform="matrix(1,0,0,1,328,288) translate(54.19555555555556 37.04666666666667)"/><defs><path fill="#444" d="M254 12C182 13 102-2 57-22v-678h130v240h4c26-30 72-53 127-52 135 3 185 99 185 249 0 170-87 274-249 275zm7-110c84 0 108-64 108-161 0-95-30-143-89-143-53 1-78 30-93 72v218c20 10 44 14 74 14" id="m"/><path fill="#444" d="M211 14C88 14 52-63 52-189v-311h130v284c2 72 6 113 71 115 52 1 83-37 98-76v-323h130c6 167-14 358 16 500h-98l-23-74h-4c-29 48-84 88-161 88" id="n"/><path fill="#444" d="M208 14C110 12 74-35 74-138v-252H5v-110h69v-94l130-37v131h122v110H204v192c2 58 2 97 50 97 30 0 44-6 67-16l23 100c-34 16-86 31-136 31" id="o"/><path fill="#444" d="M269 14C107 14 36-88 33-250c-2-161 81-264 236-264 162 0 233 102 235 264 2 161-80 264-235 264zm0-418c-78 0-104 61-102 154 1 82 21 154 102 154 80 0 101-62 101-154 0-83-21-154-101-154" id="p"/><path fill="#444" d="M338-514c121 0 155 79 155 203V0H363v-284c-1-72-12-113-77-115-52-1-86 36-99 75V0H57v-500h103l15 66h4c32-43 81-80 159-80" id="q"/><g id="a"><use transform="matrix(0.017777777777777778,0,0,0.017777777777777778,0,0)" xlink:href="#m"/><use transform="matrix(0.017777777777777778,0,0,0.017777777777777778,9.528888888888888,0)" xlink:href="#n"/><use transform="matrix(0.017777777777777778,0,0,0.017777777777777778,19.093333333333334,0)" xlink:href="#o"/><use transform="matrix(0.017777777777777778,0,0,0.017777777777777778,25.173333333333332,0)" xlink:href="#o"/><use transform="matrix(0.017777777777777778,0,0,0.017777777777777778,31.288888888888888,0)" xlink:href="#p"/><use transform="matrix(0.017777777777777778,0,0,0.017777777777777778,40.83555555555556,0)" xlink:href="#q"/></g><path fill="#444" d="M291-90c49 0 97-19 123-38l43 85c-40 32-117 57-191 57C103 14 34-89 33-250c-2-167 81-264 240-264 129 0 199 68 200 202 0 33-4 65-10 95H163c5 84 39 127 128 127zm61-208c5-67-19-112-81-112-71-1-98 47-105 112h186" id="r"/><path fill="#444" d="M170-256L20-500h155c34 56 71 109 93 177 24-68 63-121 98-177h141L356-260 517 0H366c-38-62-83-118-107-194-26 75-70 132-109 194H8" id="s"/><g id="b"><use transform="matrix(0.018,0,0,0.018,0,0)" xlink:href="#o"/><use transform="matrix(0.018,0,0,0.018,6.191999999999999,0)" xlink:href="#r"/><use transform="matrix(0.018,0,0,0.018,14.957999999999998,0)" xlink:href="#s"/><use transform="matrix(0.018,0,0,0.018,24.407999999999998,0)" xlink:href="#o"/></g><path fill="#444" d="M208-256L40-500h98c42 64 91 121 123 195 33-74 83-131 126-195h90L308-260 487 0h-95c-46-70-100-132-136-212-37 80-92 142-139 212H28" id="t"/><path fill="#444" d="M268 12C112 12 51-93 49-250c-1-158 69-262 219-262 156 0 217 105 219 262 1 158-69 262-219 262zm136-262c0-105-32-190-136-192-91-2-136 63-136 192 0 105 33 189 136 192 91 2 136-63 136-192" id="u"/><path fill="#444" d="M262 12c-51 0-69-5-105-20v208H77v-700h55l15 60h4c28-43 75-72 143-72 149 0 198 89 198 252 0 161-73 272-230 272zm147-273c-1-103-28-181-130-181-75 0-107 41-122 107v248c27 20 53 30 102 29 104-2 152-86 150-203" id="v"/><path fill="#444" d="M77 0v-500h80v430h171v-430h80v430h171v-430h80V0H77" id="w"/><g id="c"><use transform="matrix(0.018,0,0,0.018,0,0)" xlink:href="#t"/><use transform="matrix(0.018,0,0,0.018,9.144,0)" xlink:href="#u"/><use transform="matrix(0.018,0,0,0.018,18.792,0)" xlink:href="#v"/><use transform="matrix(0.018,0,0,0.018,28.53,0)" xlink:href="#u"/><use transform="matrix(0.018,0,0,0.018,38.178,0)" xlink:href="#w"/><use transform="matrix(0.018,0,0,0.018,51.425999999999995,0)" xlink:href="#u"/></g><path fill="#444" d="M200-90c53 9 88-53 47-80-80-53-213-55-211-192 2-102 65-152 171-152 67 0 135 17 175 39l-29 94c-31-11-84-29-129-29-54 0-78 51-41 74 81 50 213 53 211 187-2 110-75 163-194 163C133 14 65-7 25-31l36-97c31 17 89 40 139 38" id="x"/><path fill="#444" d="M278 14c-42 0-63-5-91-19v205H57v-700h95l15 60h4c33-47 73-74 148-74 142 0 188 93 188 251 0 164-68 277-229 277zm95-280c0-79-20-138-93-138-57 0-77 30-93 76v208c20 15 38 25 74 24 90-3 112-66 112-170" id="y"/><path fill="#444" d="M306-378c-38-49-172-17-221 4l-31-97c53-24 132-39 210-39 122 0 181 55 180 175-1 112-20 242 11 336H349l-21-69h-5c-28 41-74 78-147 76C81 5 23-45 23-138c0-142 140-164 291-160 5-37 4-65-8-80zM157-158c-3 37 24 59 62 59 49 0 79-27 96-55v-65c-71-4-153-3-158 61" id="z"/><g id="d"><use transform="matrix(0.018,0,0,0.018,0,0)" xlink:href="#x"/><use transform="matrix(0.018,0,0,0.018,7.595999999999999,0)" xlink:href="#y"/><use transform="matrix(0.018,0,0,0.018,17.316,0)" xlink:href="#z"/><use transform="matrix(0.018,0,0,0.018,26.244,0)" xlink:href="#q"/></g><path fill="#444" d="M422-354c0 120-19 253 8 356h-59l-21-70h-5C315-22 265 8 189 8 98 8 39-43 39-134c0-147 152-157 302-151 10-93 1-159-99-153-57 4-110 14-148 35l-25-60c48-30 118-45 194-45 108-1 159 51 159 154zM122-142c-2 47 40 81 89 80 67-1 109-32 130-79v-83c-95-3-214-10-219 82" id="A"/><path fill="#444" d="M152-439c26-60 97-88 178-61l-17 77c-74-29-156 5-156 73V0H77v-500h56l15 61h4" id="B"/><path fill="#444" d="M94-500h80V0H94v-500zm38-99c-31 0-55-23-55-53s24-56 55-56 58 26 58 56-28 53-58 53" id="C"/><path fill="#444" d="M59-325h242v74H59v-74" id="D"/><path fill="#444" d="M189 12C123 10 86-25 86-100v-600h80v577c-10 72 59 74 108 54l9 63c-18 10-66 18-94 18" id="E"/><path fill="#444" d="M247 9C183 10 114-8 77-29v-671h80v249h4c28-36 76-61 136-61 144 0 194 97 194 254C491-91 407 8 247 9zm161-268c-2-100-27-183-125-183-74 0-109 46-126 107v252c24 14 63 22 102 22 105 0 151-78 149-198" id="F"/><path fill="#444" d="M293-58c43 0 98-19 119-40l30 58C404-9 338 12 270 12 112 10 51-92 49-250c-1-159 70-258 220-262 155-4 211 110 184 270H132c0 116 45 184 161 184zm88-247c1-92-30-137-111-137-89 0-129 46-137 137h248" id="G"/><path fill="#444" d="M40-457h424v72H40v-72zm0 166h424v72H40v-72" id="H"/><path fill="#444" d="M207-700h78l-31 193h-47v-193zm-117 0h78l-31 193H90v-193" id="I"/><path fill="#444" d="M504-321H168V0H85v-700h83v305h336v-305h83V0h-83v-321" id="J"/><path fill="#444" d="M293-58c43 0 98-19 119-40l30 58C404-9 338 12 270 12 112 10 51-92 49-250c-1-159 70-258 220-262 155-4 211 110 184 270H132c0 116 45 184 161 184zm88-247c1-92-30-137-111-137-89 0-129 46-137 137h248" id="K"/><g id="e"><use transform="matrix(0.018,0,0,0.018,0,0)" xlink:href="#A"/><use transform="matrix(0.018,0,0,0.018,8.927999999999999,0)" xlink:href="#B"/><use transform="matrix(0.018,0,0,0.018,15.047999999999998,0)" xlink:href="#C"/><use transform="matrix(0.018,0,0,0.018,19.872,0)" xlink:href="#A"/><use transform="matrix(0.018,0,0,0.018,28.799999999999997,0)" xlink:href="#D"/><use transform="matrix(0.018,0,0,0.018,35.279999999999994,0)" xlink:href="#E"/><use transform="matrix(0.018,0,0,0.018,40.535999999999994,0)" xlink:href="#A"/><use transform="matrix(0.018,0,0,0.018,49.46399999999999,0)" xlink:href="#F"/><use transform="matrix(0.018,0,0,0.018,59.18399999999999,0)" xlink:href="#G"/><use transform="matrix(0.018,0,0,0.018,68.32799999999999,0)" xlink:href="#E"/><use transform="matrix(0.018,0,0,0.018,73.58399999999999,0)" xlink:href="#H"/><use transform="matrix(0.018,0,0,0.018,82.67399999999999,0)" xlink:href="#I"/><use transform="matrix(0.018,0,0,0.018,88.704,0)" xlink:href="#J"/><use transform="matrix(0.018,0,0,0.018,100.8,0)" xlink:href="#K"/></g><path fill="#444" d="M64-70c60-104 75-258 80-430h302v430h73v197h-54L450 0H74L59 127H5V-70h59zm152-360c-8 132-25 268-72 360h222v-360H216" id="L"/><path fill="#444" d="M346-430H201c-12 154-13 330-95 414C82 10 30 8-5-5L7-72c59 14 77-23 90-78 23-100 27-207 31-350h298V0h-80v-430" id="M"/><path fill="#444" d="M422-354c0 120-19 253 8 356h-59l-21-70h-5C315-22 265 8 189 8 98 8 39-43 39-134c0-147 152-157 302-151 10-93 1-159-99-153-57 4-110 14-148 35l-25-60c48-30 118-45 194-45 108-1 159 51 159 154zM122-142c-2 47 40 81 89 80 67-1 109-32 130-79v-83c-95-3-214-10-219 82" id="N"/><path fill="#444" d="M395-430H239V0h-80v-430H3v-70h392v70" id="O"/><path fill="#444" d="M351-158c0-89-105-105-194-85v173c92 16 194 5 194-88zm83-9C431-34 352 5 210 6c-43 0-87-2-133-6v-500h80v191c138-22 280 3 277 142" id="P"/><g id="f"><use transform="matrix(0.018,0,0,0.018,0,0)" xlink:href="#L"/><use transform="matrix(0.018,0,0,0.018,9.738,0)" xlink:href="#K"/><use transform="matrix(0.018,0,0,0.018,18.485999999999997,0)" xlink:href="#M"/><use transform="matrix(0.018,0,0,0.018,27.539999999999996,0)" xlink:href="#N"/><use transform="matrix(0.018,0,0,0.018,36.467999999999996,0)" xlink:href="#O"/><use transform="matrix(0.018,0,0,0.018,43.614,0)" xlink:href="#P"/><use transform="matrix(0.018,0,0,0.018,49.337999999999994,0)" xlink:href="#I"/></g><path fill="#444" d="M276-509c50 0 69 4 105 17v-208h80v528c1 67-1 118 10 174h-54l-20-71h-4c-25 44-78 82-147 81C97 8 50-86 49-248c-1-159 77-260 227-261zM132-248c1 104 26 190 127 190 75 0 108-41 122-107v-248c-27-20-53-26-102-26-105 0-148 72-147 191" id="Q"/><path fill="#444" d="M104-500c49 140 107 271 148 420h5c31-148 79-280 119-420h81C396-319 339-134 276 44c-20 55-46 106-82 140-28 26-82 25-117 11l14-69c34 12 54 2 79-24 17-20 32-54 43-102L12-500h92" id="R"/><g id="g"><use transform="matrix(0.018,0,0,0.018,0,0)" xlink:href="#A"/><use transform="matrix(0.018,0,0,0.018,8.927999999999999,0)" xlink:href="#B"/><use transform="matrix(0.018,0,0,0.018,15.047999999999998,0)" xlink:href="#C"/><use transform="matrix(0.018,0,0,0.018,19.872,0)" xlink:href="#A"/><use transform="matrix(0.018,0,0,0.018,28.799999999999997,0)" xlink:href="#D"/><use transform="matrix(0.018,0,0,0.018,35.279999999999994,0)" xlink:href="#E"/><use transform="matrix(0.018,0,0,0.018,40.535999999999994,0)" xlink:href="#A"/><use transform="matrix(0.018,0,0,0.018,49.46399999999999,0)" xlink:href="#F"/><use transform="matrix(0.018,0,0,0.018,59.18399999999999,0)" xlink:href="#G"/><use transform="matrix(0.018,0,0,0.018,68.32799999999999,0)" xlink:href="#E"/><use transform="matrix(0.018,0,0,0.018,73.58399999999999,0)" xlink:href="#E"/><use transform="matrix(0.018,0,0,0.018,78.83999999999999,0)" xlink:href="#G"/><use transform="matrix(0.018,0,0,0.018,87.984,0)" xlink:href="#Q"/><use transform="matrix(0.018,0,0,0.018,97.66799999999999,0)" xlink:href="#F"/><use transform="matrix(0.018,0,0,0.018,107.172,0)" xlink:href="#R"/><use transform="matrix(0.018,0,0,0.018,115.56,0)" xlink:href="#H"/><use transform="matrix(0.018,0,0,0.018,124.65,0)" xlink:href="#I"/><use transform="matrix(0.018,0,0,0.018,130.68,0)" xlink:href="#E"/><use transform="matrix(0.018,0,0,0.018,135.936,0)" xlink:href="#A"/><use transform="matrix(0.018,0,0,0.018,144.864,0)" xlink:href="#F"/><use transform="matrix(0.018,0,0,0.018,154.58399999999997,0)" xlink:href="#G"/><use transform="matrix(0.018,0,0,0.018,163.728,0)" xlink:href="#E"/><use transform="matrix(0.018,0,0,0.018,168.984,0)" xlink:href="#I"/></g><g id="h"><use transform="matrix(0.018,0,0,0.018,0,0)" xlink:href="#C"/><use transform="matrix(0.018,0,0,0.018,4.824,0)" xlink:href="#Q"/><use transform="matrix(0.018,0,0,0.018,14.508,0)" xlink:href="#H"/><use transform="matrix(0.018,0,0,0.018,23.598,0)" xlink:href="#I"/><use transform="matrix(0.018,0,0,0.018,29.628,0)" xlink:href="#E"/><use transform="matrix(0.018,0,0,0.018,34.884,0)" xlink:href="#A"/><use transform="matrix(0.018,0,0,0.018,43.812,0)" xlink:href="#F"/><use transform="matrix(0.018,0,0,0.018,53.532,0)" xlink:href="#G"/><use transform="matrix(0.018,0,0,0.018,62.675999999999995,0)" xlink:href="#E"/><use transform="matrix(0.018,0,0,0.018,67.93199999999999,0)" xlink:href="#I"/></g><path fill="#444" d="M378-430H157V0H77v-500h381V0h-80v-430" id="S"/><g id="i"><use transform="matrix(0.018,0,0,0.018,0,0)" xlink:href="#S"/><use transform="matrix(0.018,0,0,0.018,9.629999999999999,0)" xlink:href="#M"/><use transform="matrix(0.018,0,0,0.018,18.683999999999997,0)" xlink:href="#u"/><use transform="matrix(0.018,0,0,0.018,28.223999999999997,0)" xlink:href="#t"/><use transform="matrix(0.018,0,0,0.018,37.367999999999995,0)" xlink:href="#u"/></g><g id="j"><use transform="matrix(0.018,0,0,0.018,0,0)" xlink:href="#A"/><use transform="matrix(0.018,0,0,0.018,8.927999999999999,0)" xlink:href="#B"/><use transform="matrix(0.018,0,0,0.018,15.047999999999998,0)" xlink:href="#C"/><use transform="matrix(0.018,0,0,0.018,19.872,0)" xlink:href="#A"/><use transform="matrix(0.018,0,0,0.018,28.799999999999997,0)" xlink:href="#D"/><use transform="matrix(0.018,0,0,0.018,35.279999999999994,0)" xlink:href="#E"/><use transform="matrix(0.018,0,0,0.018,40.535999999999994,0)" xlink:href="#A"/><use transform="matrix(0.018,0,0,0.018,49.46399999999999,0)" xlink:href="#F"/><use transform="matrix(0.018,0,0,0.018,59.18399999999999,0)" xlink:href="#G"/><use transform="matrix(0.018,0,0,0.018,68.32799999999999,0)" xlink:href="#E"/><use transform="matrix(0.018,0,0,0.018,73.58399999999999,0)" xlink:href="#E"/><use transform="matrix(0.018,0,0,0.018,78.83999999999999,0)" xlink:href="#G"/><use transform="matrix(0.018,0,0,0.018,87.984,0)" xlink:href="#Q"/><use transform="matrix(0.018,0,0,0.018,97.66799999999999,0)" xlink:href="#F"/><use transform="matrix(0.018,0,0,0.018,107.172,0)" xlink:href="#R"/></g><path fill="#444" d="M378-62c56 2 101-12 135-32l20 65C494 2 428 12 359 12 150 12 58-132 56-350c-2-250 141-394 402-356 25 4 47 11 65 18l-20 73c-32-15-78-23-137-23-158 0-222 119-222 288S215-68 378-62" id="T"/><g id="k"><use transform="matrix(0.018,0,0,0.018,0,0)" xlink:href="#T"/><use transform="matrix(0.018,0,0,0.018,9.738,0)" xlink:href="#L"/><use transform="matrix(0.018,0,0,0.018,19.476,0)" xlink:href="#K"/><use transform="matrix(0.018,0,0,0.018,28.223999999999997,0)" xlink:href="#M"/><use transform="matrix(0.018,0,0,0.018,37.27799999999999,0)" xlink:href="#N"/><use transform="matrix(0.018,0,0,0.018,46.20599999999999,0)" xlink:href="#O"/><use transform="matrix(0.018,0,0,0.018,53.35199999999999,0)" xlink:href="#P"/></g><g id="l"><use transform="matrix(0.017777777777777778,0,0,0.017777777777777778,0,0)" xlink:href="#x"/><use transform="matrix(0.017777777777777778,0,0,0.017777777777777778,7.502222222222223,0)" xlink:href="#y"/><use transform="matrix(0.017777777777777778,0,0,0.017777777777777778,17.102222222222224,0)" xlink:href="#z"/><use transform="matrix(0.017777777777777778,0,0,0.017777777777777778,25.92,0)" xlink:href="#q"/></g></defs></g></svg>